<svg width="93" height="68" viewBox="0 0 93 68" fill="none" xmlns="http://www.w3.org/2000/svg">
<path d="M10.744 12.12C10.016 12.12 9.368 12.032 8.8 11.856C8.232 11.672 7.752 11.42 7.36 11.1L7.852 9.96C8.212 10.248 8.62 10.468 9.076 10.62C9.532 10.764 10.052 10.836 10.636 10.836C11.34 10.836 11.856 10.728 12.184 10.512C12.512 10.288 12.676 9.956 12.676 9.516C12.676 9.108 12.54 8.808 12.268 8.616C11.996 8.416 11.576 8.316 11.008 8.316H8.884V7.104H10.816C11.36 7.104 11.768 7.008 12.04 6.816C12.32 6.616 12.46 6.32 12.46 5.928C12.46 5.552 12.312 5.256 12.016 5.04C11.72 4.816 11.264 4.704 10.648 4.704C10.16 4.704 9.692 4.776 9.244 4.92C8.796 5.064 8.396 5.276 8.044 5.556L7.552 4.416C7.928 4.096 8.4 3.852 8.968 3.684C9.544 3.508 10.152 3.42 10.792 3.42C11.84 3.42 12.628 3.632 13.156 4.056C13.692 4.48 13.96 5.036 13.96 5.724C13.96 6.236 13.808 6.672 13.504 7.032C13.2 7.384 12.784 7.62 12.256 7.74V7.56C12.856 7.648 13.324 7.872 13.66 8.232C14.004 8.592 14.176 9.064 14.176 9.648C14.176 10.144 14.048 10.58 13.792 10.956C13.544 11.324 13.164 11.612 12.652 11.82C12.148 12.02 11.512 12.12 10.744 12.12ZM15.6469 12V3.54H17.1949V7.068H21.5269V3.54H23.0749V12H21.5269V8.352H17.1949V12H15.6469ZM24.9399 12V3.54H26.3679V9.924H26.0799L30.9759 3.54H32.1399V12H30.6999V5.616H30.9879L26.0799 12H24.9399ZM33.1105 12L34.6105 8.988C34.8825 8.46 35.2025 8.052 35.5705 7.764C35.9385 7.468 36.3945 7.28 36.9385 7.2L36.3505 7.632L33.5665 3.54H35.2585L37.7665 7.344L37.4665 7.14H38.5705V3.54H40.0465V7.14H41.1625L40.8505 7.344L43.3465 3.54H45.0385L42.2665 7.632L41.6785 7.2C42.2225 7.28 42.6745 7.468 43.0345 7.764C43.4025 8.052 43.7185 8.46 43.9825 8.988L45.4945 12H43.8385L42.6625 9.564C42.4625 9.148 42.2225 8.852 41.9425 8.676C41.6705 8.492 41.3225 8.4 40.8985 8.4H40.0465V12H38.5705V8.4H37.7185C37.2865 8.4 36.9305 8.492 36.6505 8.676C36.3785 8.852 36.1425 9.148 35.9425 9.564L34.7785 12H33.1105ZM46.479 12V3.54H48.003V7.14H49.443L49.131 7.344L51.627 3.54H53.331L50.547 7.632L49.959 7.2C50.503 7.28 50.955 7.468 51.315 7.764C51.683 8.052 52.003 8.46 52.275 8.988L53.775 12H52.107L50.943 9.564C50.743 9.14 50.503 8.84 50.223 8.664C49.951 8.488 49.603 8.4 49.179 8.4H48.003V12H46.479ZM54.7641 12V3.54H56.1921V9.924H55.9041L60.8001 3.54H61.9641V12H60.5241V5.616H60.8121L55.9041 12H54.7641ZM66.3477 13.98V10.788H67.2237C67.6237 10.308 67.9197 9.652 68.1117 8.82C68.3037 7.988 68.3997 6.964 68.3997 5.748V3.54H74.5317V10.788H75.7677V13.98H74.4237V12H67.7037V13.98H66.3477ZM68.7717 10.788H72.9957V4.74H69.8157V5.892C69.8157 7.052 69.7277 8.028 69.5517 8.82C69.3837 9.612 69.1237 10.268 68.7717 10.788ZM76.7069 7.764C76.7069 6.876 76.8669 6.108 77.1869 5.46C77.5149 4.812 77.9829 4.312 78.5909 3.96C79.1989 3.6 79.9229 3.42 80.7629 3.42C81.5949 3.42 82.3149 3.6 82.9229 3.96C83.5309 4.312 83.9989 4.812 84.3269 5.46C84.6629 6.108 84.8309 6.872 84.8309 7.752C84.8309 8.64 84.6629 9.412 84.3269 10.068C83.9989 10.716 83.5309 11.22 82.9229 11.58C82.3149 11.94 81.5949 12.12 80.7629 12.12C79.9229 12.12 79.1989 11.94 78.5909 11.58C77.9909 11.22 77.5269 10.716 77.1989 10.068C76.8709 9.412 76.7069 8.644 76.7069 7.764ZM78.3269 7.764C78.3269 8.716 78.5309 9.46 78.9389 9.996C79.3469 10.532 79.9549 10.8 80.7629 10.8C81.5469 10.8 82.1509 10.532 82.5749 9.996C82.9989 9.46 83.2109 8.716 83.2109 7.764C83.2109 6.804 82.9989 6.06 82.5749 5.532C82.1589 5.004 81.5549 4.74 80.7629 4.74C79.9549 4.74 79.3469 5.004 78.9389 5.532C78.5309 6.06 78.3269 6.804 78.3269 7.764Z" fill="white"/>
<path d="M4.92 38.49V34.95H14.37V38.49H4.92ZM25.3301 45.33C24.3901 45.33 23.4601 45.23 22.5401 45.03C21.6201 44.83 20.7601 44.56 19.9601 44.22C19.1601 43.86 18.4901 43.44 17.9501 42.96L19.4201 39.48C20.3201 40.12 21.2601 40.61 22.2401 40.95C23.2201 41.29 24.2201 41.46 25.2401 41.46C26.4001 41.46 27.3001 41.19 27.9401 40.65C28.6001 40.09 28.9301 39.33 28.9301 38.37C28.9301 37.41 28.6201 36.64 28.0001 36.06C27.3801 35.48 26.5301 35.19 25.4501 35.19C24.6901 35.19 23.9801 35.33 23.3201 35.61C22.6801 35.89 22.1001 36.32 21.5801 36.9H18.5801V23.85H32.0801V27.66H22.9901V33.39H21.9101C22.4101 32.77 23.0701 32.29 23.8901 31.95C24.7101 31.61 25.6301 31.44 26.6501 31.44C28.0101 31.44 29.1901 31.73 30.1901 32.31C31.2101 32.87 32.0001 33.66 32.5601 34.68C33.1201 35.68 33.4001 36.86 33.4001 38.22C33.4001 39.62 33.0701 40.86 32.4101 41.94C31.7701 43 30.8401 43.83 29.6201 44.43C28.4201 45.03 26.9901 45.33 25.3301 45.33ZM43.3184 45.33C40.7784 45.33 38.8184 44.38 37.4384 42.48C36.0784 40.56 35.3984 37.86 35.3984 34.38C35.3984 30.84 36.0784 28.15 37.4384 26.31C38.8184 24.45 40.7784 23.52 43.3184 23.52C45.8784 23.52 47.8384 24.45 49.1984 26.31C50.5584 28.15 51.2384 30.83 51.2384 34.35C51.2384 37.85 50.5584 40.56 49.1984 42.48C47.8384 44.38 45.8784 45.33 43.3184 45.33ZM43.3184 41.55C44.4784 41.55 45.3384 40.98 45.8984 39.84C46.4784 38.68 46.7684 36.85 46.7684 34.35C46.7684 31.85 46.4784 30.05 45.8984 28.95C45.3384 27.85 44.4784 27.3 43.3184 27.3C42.1584 27.3 41.2884 27.85 40.7084 28.95C40.1484 30.05 39.8684 31.84 39.8684 34.32C39.8684 36.84 40.1584 38.68 40.7384 39.84C41.3184 40.98 42.1784 41.55 43.3184 41.55ZM70.8534 45H67.0134L79.4334 23.85H83.2734L70.8534 45ZM67.3734 36.45C65.6334 36.45 64.2734 35.87 63.2934 34.71C62.3134 33.53 61.8234 31.95 61.8234 29.97C61.8234 27.97 62.3134 26.4 63.2934 25.26C64.2934 24.1 65.6534 23.52 67.3734 23.52C69.1134 23.52 70.4734 24.11 71.4534 25.29C72.4334 26.45 72.9234 28.01 72.9234 29.97C72.9234 31.95 72.4334 33.53 71.4534 34.71C70.4734 35.87 69.1134 36.45 67.3734 36.45ZM67.3734 33.66C67.9734 33.66 68.4334 33.37 68.7534 32.79C69.0934 32.21 69.2634 31.27 69.2634 29.97C69.2634 28.65 69.0934 27.72 68.7534 27.18C68.4334 26.64 67.9734 26.37 67.3734 26.37C66.7534 26.37 66.2834 26.64 65.9634 27.18C65.6434 27.7 65.4834 28.63 65.4834 29.97C65.4834 31.31 65.6434 32.26 65.9634 32.82C66.2834 33.38 66.7534 33.66 67.3734 33.66ZM82.9134 45.33C81.1734 45.33 79.8134 44.74 78.8334 43.56C77.8534 42.38 77.3634 40.8 77.3634 38.82C77.3634 36.82 77.8534 35.25 78.8334 34.11C79.8334 32.97 81.1934 32.4 82.9134 32.4C84.6734 32.4 86.0334 32.98 86.9934 34.14C87.9734 35.3 88.4634 36.86 88.4634 38.82C88.4634 40.8 87.9734 42.38 86.9934 43.56C86.0334 44.74 84.6734 45.33 82.9134 45.33ZM82.9134 42.48C83.5334 42.48 84.0034 42.2 84.3234 41.64C84.6634 41.06 84.8334 40.12 84.8334 38.82C84.8334 37.5 84.6634 36.57 84.3234 36.03C84.0034 35.47 83.5334 35.19 82.9134 35.19C82.3134 35.19 81.8434 35.46 81.5034 36C81.1834 36.54 81.0234 37.48 81.0234 38.82C81.0234 40.16 81.1834 41.11 81.5034 41.67C81.8434 42.21 82.3134 42.48 82.9134 42.48Z" fill="white"/>
<path d="M0.936 65V56.54H2.484V60.068H6.816V56.54H8.364V65H6.816V61.352H2.484V65H0.936ZM9.29297 65L13.121 56.54H14.417L18.293 65H16.721L15.689 62.624L16.313 63.044H11.237L11.885 62.624L10.853 65H9.29297ZM13.757 58.196L12.065 62.204L11.753 61.832H15.785L15.533 62.204L13.805 58.196H13.757ZM22.5219 65V56.54H24.0699V60.068H28.4019V56.54H29.9499V65H28.4019V61.352H24.0699V65H22.5219ZM30.8789 65L34.7069 56.54H36.0029L39.8789 65H38.3069L37.2749 62.624L37.8989 63.044H32.8229L33.4709 62.624L32.4389 65H30.8789ZM35.3429 58.196L33.6509 62.204L33.3389 61.832H37.3709L37.1189 62.204L35.3909 58.196H35.3429ZM40.8149 65V56.54H44.5229C45.4429 56.54 46.1509 56.736 46.6469 57.128C47.1429 57.512 47.3909 58.048 47.3909 58.736C47.3909 59.248 47.2389 59.68 46.9349 60.032C46.6309 60.384 46.2109 60.62 45.6749 60.74V60.56C46.2909 60.648 46.7669 60.872 47.1029 61.232C47.4469 61.584 47.6189 62.052 47.6189 62.636C47.6189 63.388 47.3589 63.972 46.8389 64.388C46.3189 64.796 45.5949 65 44.6669 65H40.8149ZM42.3029 63.824H44.4869C45.0069 63.824 45.4109 63.728 45.6989 63.536C45.9869 63.336 46.1309 63.012 46.1309 62.564C46.1309 62.108 45.9869 61.784 45.6989 61.592C45.4109 61.392 45.0069 61.292 44.4869 61.292H42.3029V63.824ZM42.3029 60.128H44.2589C44.8109 60.128 45.2189 60.028 45.4829 59.828C45.7549 59.62 45.8909 59.316 45.8909 58.916C45.8909 58.516 45.7549 58.216 45.4829 58.016C45.2189 57.808 44.8109 57.704 44.2589 57.704H42.3029V60.128ZM54.2481 65V61.688C54.0161 61.792 53.7241 61.876 53.3721 61.94C53.0201 62.004 52.6681 62.036 52.3161 62.036C51.1801 62.036 50.3081 61.744 49.7001 61.16C49.1001 60.576 48.8001 59.692 48.8001 58.508V56.54H50.3361V58.436C50.3361 59.236 50.5121 59.82 50.8641 60.188C51.2241 60.548 51.7641 60.728 52.4841 60.728C52.7881 60.728 53.0881 60.7 53.3841 60.644C53.6881 60.588 53.9761 60.496 54.2481 60.368V56.54H55.7841V65H54.2481ZM56.707 65L60.535 56.54H61.831L65.707 65H64.135L63.103 62.624L63.727 63.044H58.651L59.299 62.624L58.267 65H56.707ZM61.171 58.196L59.479 62.204L59.167 61.832H63.199L62.947 62.204L61.219 58.196H61.171ZM66.643 65V56.54H68.191V60.068H72.523V56.54H74.071V65H72.523V61.352H68.191V65H66.643ZM75.936 65V56.54H77.484V60.068H81.816V56.54H83.364V65H81.816V61.352H77.484V65H75.936ZM84.653 65L86.129 62.396C86.321 62.052 86.541 61.8 86.789 61.64C87.045 61.48 87.341 61.4 87.677 61.4H88.085L88.073 61.58C87.121 61.58 86.381 61.36 85.853 60.92C85.333 60.472 85.073 59.852 85.073 59.06C85.073 58.26 85.329 57.64 85.841 57.2C86.361 56.76 87.097 56.54 88.049 56.54H91.829V65H90.293V61.616H89.165C88.845 61.616 88.585 61.664 88.385 61.76C88.185 61.856 88.009 62.04 87.857 62.312L86.345 65H84.653ZM88.301 60.488H90.293V57.74H88.301C87.141 57.74 86.561 58.196 86.561 59.108C86.561 60.028 87.141 60.488 88.301 60.488Z" fill="white"/>
</svg>
