<svg width="222" height="173" viewBox="0 0 222 173" fill="none" xmlns="http://www.w3.org/2000/svg">
<path opacity="0.3" fill-rule="evenodd" clip-rule="evenodd" d="M97.4055 16.9463C84.399 20.1348 71.5847 19.9555 58.9001 24.2495C40.3219 30.5387 16.5411 30.8582 6.51402 47.7153C-3.59702 64.7135 0.890762 88.2212 10.5978 105.453C19.6063 121.445 40.5795 124.238 55.5791 134.817C70.2609 145.172 79.4518 166.016 97.4055 166.677C115.379 167.339 126.219 147.415 141.532 137.982C158.703 127.404 182.905 125.896 192.447 108.129C202.329 89.7289 197.672 66.6094 190.375 47.0403C183.29 28.0428 171.89 7.52352 152.6 1.27934C133.948 -4.75824 116.446 12.2785 97.4055 16.9463Z" fill="url(#paint0_linear_43_1897)"/>
<path d="M20.5324 55.2282C20.5324 56.118 19.8103 56.8392 18.9197 56.8392C18.029 56.8392 17.307 56.118 17.307 55.2282C17.307 54.3385 18.029 53.6172 18.9197 53.6172C19.8103 53.6172 20.5324 54.3385 20.5324 55.2282Z" fill="#8B57C2"/>
<path d="M30.2084 55.2282C30.2084 56.118 29.4864 56.8392 28.5958 56.8392C27.7051 56.8392 26.9831 56.118 26.9831 55.2282C26.9831 54.3385 27.7051 53.6172 28.5958 53.6172C29.4864 53.6172 30.2084 54.3385 30.2084 55.2282Z" fill="#8B57C2"/>
<path d="M39.8845 55.2282C39.8845 56.118 39.1625 56.8392 38.2718 56.8392C37.3812 56.8392 36.6592 56.118 36.6592 55.2282C36.6592 54.3385 37.3812 53.6172 38.2718 53.6172C39.1625 53.6172 39.8845 54.3385 39.8845 55.2282Z" fill="#8B57C2"/>
<path d="M49.5606 55.2282C49.5606 56.118 48.8386 56.8392 47.9479 56.8392C47.0572 56.8392 46.3352 56.118 46.3352 55.2282C46.3352 54.3385 47.0572 53.6172 47.9479 53.6172C48.8386 53.6172 49.5606 54.3385 49.5606 55.2282Z" fill="#8B57C2"/>
<path d="M59.2367 55.2282C59.2367 56.118 58.5146 56.8392 57.624 56.8392C56.7333 56.8392 56.0113 56.118 56.0113 55.2282C56.0113 54.3385 56.7333 53.6172 57.624 53.6172C58.5146 53.6172 59.2367 54.3385 59.2367 55.2282Z" fill="#8B57C2"/>
<path d="M68.9127 55.2282C68.9127 56.118 68.1907 56.8392 67.3 56.8392C66.4094 56.8392 65.6874 56.118 65.6874 55.2282C65.6874 54.3385 66.4094 53.6172 67.3 53.6172C68.1907 53.6172 68.9127 54.3385 68.9127 55.2282Z" fill="#8B57C2"/>
<path d="M78.5888 55.2282C78.5888 56.118 77.8668 56.8392 76.9761 56.8392C76.0855 56.8392 75.3634 56.118 75.3634 55.2282C75.3634 54.3385 76.0855 53.6172 76.9761 53.6172C77.8668 53.6172 78.5888 54.3385 78.5888 55.2282Z" fill="#8B57C2"/>
<path d="M88.2649 55.2282C88.2649 56.118 87.5429 56.8392 86.6522 56.8392C85.7615 56.8392 85.0395 56.118 85.0395 55.2282C85.0395 54.3385 85.7615 53.6172 86.6522 53.6172C87.5429 53.6172 88.2649 54.3385 88.2649 55.2282Z" fill="#8B57C2"/>
<path d="M97.9409 55.2282C97.9409 56.118 97.2189 56.8392 96.3283 56.8392C95.4376 56.8392 94.7156 56.118 94.7156 55.2282C94.7156 54.3385 95.4376 53.6172 96.3283 53.6172C97.2189 53.6172 97.9409 54.3385 97.9409 55.2282Z" fill="#8B57C2"/>
<path d="M107.617 55.2282C107.617 56.118 106.895 56.8392 106.004 56.8392C105.114 56.8392 104.392 56.118 104.392 55.2282C104.392 54.3385 105.114 53.6172 106.004 53.6172C106.895 53.6172 107.617 54.3385 107.617 55.2282Z" fill="#8B57C2"/>
<path d="M117.293 55.2282C117.293 56.118 116.571 56.8392 115.68 56.8392C114.79 56.8392 114.068 56.118 114.068 55.2282C114.068 54.3385 114.79 53.6172 115.68 53.6172C116.571 53.6172 117.293 54.3385 117.293 55.2282Z" fill="#8B57C2"/>
<path d="M20.5324 64.8944C20.5324 65.7841 19.8103 66.5054 18.9197 66.5054C18.029 66.5054 17.307 65.7841 17.307 64.8944C17.307 64.0046 18.029 63.2834 18.9197 63.2834C19.8103 63.2834 20.5324 64.0046 20.5324 64.8944Z" fill="#8B57C2"/>
<path d="M30.2084 64.8944C30.2084 65.7841 29.4864 66.5054 28.5958 66.5054C27.7051 66.5054 26.9831 65.7841 26.9831 64.8944C26.9831 64.0046 27.7051 63.2834 28.5958 63.2834C29.4864 63.2834 30.2084 64.0046 30.2084 64.8944Z" fill="#8B57C2"/>
<path d="M39.8845 64.8944C39.8845 65.7841 39.1625 66.5054 38.2718 66.5054C37.3812 66.5054 36.6592 65.7841 36.6592 64.8944C36.6592 64.0046 37.3812 63.2834 38.2718 63.2834C39.1625 63.2834 39.8845 64.0046 39.8845 64.8944Z" fill="#8B57C2"/>
<path d="M49.5606 64.8944C49.5606 65.7841 48.8386 66.5054 47.9479 66.5054C47.0572 66.5054 46.3352 65.7841 46.3352 64.8944C46.3352 64.0046 47.0572 63.2834 47.9479 63.2834C48.8386 63.2834 49.5606 64.0046 49.5606 64.8944Z" fill="#8B57C2"/>
<path d="M59.2367 64.8944C59.2367 65.7841 58.5146 66.5054 57.624 66.5054C56.7333 66.5054 56.0113 65.7841 56.0113 64.8944C56.0113 64.0046 56.7333 63.2834 57.624 63.2834C58.5146 63.2834 59.2367 64.0046 59.2367 64.8944Z" fill="#8B57C2"/>
<path d="M68.9127 64.8944C68.9127 65.7841 68.1907 66.5054 67.3 66.5054C66.4094 66.5054 65.6874 65.7841 65.6874 64.8944C65.6874 64.0046 66.4094 63.2834 67.3 63.2834C68.1907 63.2834 68.9127 64.0046 68.9127 64.8944Z" fill="#8B57C2"/>
<path d="M78.5888 64.8944C78.5888 65.7841 77.8668 66.5054 76.9761 66.5054C76.0855 66.5054 75.3634 65.7841 75.3634 64.8944C75.3634 64.0046 76.0855 63.2834 76.9761 63.2834C77.8668 63.2834 78.5888 64.0046 78.5888 64.8944Z" fill="#8B57C2"/>
<path d="M88.2649 64.8944C88.2649 65.7841 87.5429 66.5054 86.6522 66.5054C85.7615 66.5054 85.0395 65.7841 85.0395 64.8944C85.0395 64.0046 85.7615 63.2834 86.6522 63.2834C87.5429 63.2834 88.2649 64.0046 88.2649 64.8944Z" fill="#8B57C2"/>
<path d="M97.9409 64.8944C97.9409 65.7841 97.2189 66.5054 96.3283 66.5054C95.4376 66.5054 94.7156 65.7841 94.7156 64.8944C94.7156 64.0046 95.4376 63.2834 96.3283 63.2834C97.2189 63.2834 97.9409 64.0046 97.9409 64.8944Z" fill="#8B57C2"/>
<path d="M107.617 64.8944C107.617 65.7841 106.895 66.5054 106.004 66.5054C105.114 66.5054 104.392 65.7841 104.392 64.8944C104.392 64.0046 105.114 63.2834 106.004 63.2834C106.895 63.2834 107.617 64.0046 107.617 64.8944Z" fill="#8B57C2"/>
<path d="M117.293 64.8944C117.293 65.7841 116.571 66.5054 115.68 66.5054C114.79 66.5054 114.068 65.7841 114.068 64.8944C114.068 64.0046 114.79 63.2834 115.68 63.2834C116.571 63.2834 117.293 64.0046 117.293 64.8944Z" fill="#8B57C2"/>
<path d="M20.5324 74.5606C20.5324 75.4503 19.8103 76.1716 18.9197 76.1716C18.029 76.1716 17.307 75.4503 17.307 74.5606C17.307 73.6708 18.029 72.9495 18.9197 72.9495C19.8103 72.9495 20.5324 73.6708 20.5324 74.5606Z" fill="#8B57C2"/>
<path d="M30.2084 74.5606C30.2084 75.4503 29.4864 76.1716 28.5958 76.1716C27.7051 76.1716 26.9831 75.4503 26.9831 74.5606C26.9831 73.6708 27.7051 72.9495 28.5958 72.9495C29.4864 72.9495 30.2084 73.6708 30.2084 74.5606Z" fill="#8B57C2"/>
<path d="M39.8845 74.5606C39.8845 75.4503 39.1625 76.1716 38.2718 76.1716C37.3812 76.1716 36.6592 75.4503 36.6592 74.5606C36.6592 73.6708 37.3812 72.9495 38.2718 72.9495C39.1625 72.9495 39.8845 73.6708 39.8845 74.5606Z" fill="#8B57C2"/>
<path d="M49.5606 74.5606C49.5606 75.4503 48.8386 76.1716 47.9479 76.1716C47.0572 76.1716 46.3352 75.4503 46.3352 74.5606C46.3352 73.6708 47.0572 72.9495 47.9479 72.9495C48.8386 72.9495 49.5606 73.6708 49.5606 74.5606Z" fill="#8B57C2"/>
<path d="M59.2367 74.5606C59.2367 75.4503 58.5146 76.1716 57.624 76.1716C56.7333 76.1716 56.0113 75.4503 56.0113 74.5606C56.0113 73.6708 56.7333 72.9495 57.624 72.9495C58.5146 72.9495 59.2367 73.6708 59.2367 74.5606Z" fill="#8B57C2"/>
<path d="M68.9127 74.5606C68.9127 75.4503 68.1907 76.1716 67.3 76.1716C66.4094 76.1716 65.6874 75.4503 65.6874 74.5606C65.6874 73.6708 66.4094 72.9495 67.3 72.9495C68.1907 72.9495 68.9127 73.6708 68.9127 74.5606Z" fill="#8B57C2"/>
<path d="M78.5888 74.5606C78.5888 75.4503 77.8668 76.1716 76.9761 76.1716C76.0855 76.1716 75.3634 75.4503 75.3634 74.5606C75.3634 73.6708 76.0855 72.9495 76.9761 72.9495C77.8668 72.9495 78.5888 73.6708 78.5888 74.5606Z" fill="#8B57C2"/>
<path d="M88.2649 74.5606C88.2649 75.4503 87.5429 76.1716 86.6522 76.1716C85.7615 76.1716 85.0395 75.4503 85.0395 74.5606C85.0395 73.6708 85.7615 72.9495 86.6522 72.9495C87.5429 72.9495 88.2649 73.6708 88.2649 74.5606Z" fill="#8B57C2"/>
<path d="M97.9409 74.5606C97.9409 75.4503 97.2189 76.1716 96.3283 76.1716C95.4376 76.1716 94.7156 75.4503 94.7156 74.5606C94.7156 73.6708 95.4376 72.9495 96.3283 72.9495C97.2189 72.9495 97.9409 73.6708 97.9409 74.5606Z" fill="#8B57C2"/>
<path d="M107.617 74.5606C107.617 75.4503 106.895 76.1716 106.004 76.1716C105.114 76.1716 104.392 75.4503 104.392 74.5606C104.392 73.6708 105.114 72.9495 106.004 72.9495C106.895 72.9495 107.617 73.6708 107.617 74.5606Z" fill="#8B57C2"/>
<path d="M117.293 74.5606C117.293 75.4503 116.571 76.1716 115.68 76.1716C114.79 76.1716 114.068 75.4503 114.068 74.5606C114.068 73.6708 114.79 72.9495 115.68 72.9495C116.571 72.9495 117.293 73.6708 117.293 74.5606Z" fill="#8B57C2"/>
<path d="M20.5324 84.2267C20.5324 85.1165 19.8103 85.8378 18.9197 85.8378C18.029 85.8378 17.307 85.1165 17.307 84.2267C17.307 83.337 18.029 82.6157 18.9197 82.6157C19.8103 82.6157 20.5324 83.337 20.5324 84.2267Z" fill="#8B57C2"/>
<path d="M30.2084 84.2267C30.2084 85.1165 29.4864 85.8378 28.5958 85.8378C27.7051 85.8378 26.9831 85.1165 26.9831 84.2267C26.9831 83.337 27.7051 82.6157 28.5958 82.6157C29.4864 82.6157 30.2084 83.337 30.2084 84.2267Z" fill="#8B57C2"/>
<path d="M39.8845 84.2267C39.8845 85.1165 39.1625 85.8378 38.2718 85.8378C37.3812 85.8378 36.6592 85.1165 36.6592 84.2267C36.6592 83.337 37.3812 82.6157 38.2718 82.6157C39.1625 82.6157 39.8845 83.337 39.8845 84.2267Z" fill="#8B57C2"/>
<path d="M49.5606 84.2267C49.5606 85.1165 48.8386 85.8378 47.9479 85.8378C47.0572 85.8378 46.3352 85.1165 46.3352 84.2267C46.3352 83.337 47.0572 82.6157 47.9479 82.6157C48.8386 82.6157 49.5606 83.337 49.5606 84.2267Z" fill="#8B57C2"/>
<path d="M59.2367 84.2267C59.2367 85.1165 58.5146 85.8378 57.624 85.8378C56.7333 85.8378 56.0113 85.1165 56.0113 84.2267C56.0113 83.337 56.7333 82.6157 57.624 82.6157C58.5146 82.6157 59.2367 83.337 59.2367 84.2267Z" fill="#8B57C2"/>
<path d="M68.9127 84.2267C68.9127 85.1165 68.1907 85.8378 67.3 85.8378C66.4094 85.8378 65.6874 85.1165 65.6874 84.2267C65.6874 83.337 66.4094 82.6157 67.3 82.6157C68.1907 82.6157 68.9127 83.337 68.9127 84.2267Z" fill="#8B57C2"/>
<path d="M78.5888 84.2267C78.5888 85.1165 77.8668 85.8378 76.9761 85.8378C76.0855 85.8378 75.3634 85.1165 75.3634 84.2267C75.3634 83.337 76.0855 82.6157 76.9761 82.6157C77.8668 82.6157 78.5888 83.337 78.5888 84.2267Z" fill="#8B57C2"/>
<path d="M88.2649 84.2267C88.2649 85.1165 87.5429 85.8378 86.6522 85.8378C85.7615 85.8378 85.0395 85.1165 85.0395 84.2267C85.0395 83.337 85.7615 82.6157 86.6522 82.6157C87.5429 82.6157 88.2649 83.337 88.2649 84.2267Z" fill="#8B57C2"/>
<path d="M97.9409 84.2267C97.9409 85.1165 97.2189 85.8378 96.3283 85.8378C95.4376 85.8378 94.7156 85.1165 94.7156 84.2267C94.7156 83.337 95.4376 82.6157 96.3283 82.6157C97.2189 82.6157 97.9409 83.337 97.9409 84.2267Z" fill="#8B57C2"/>
<path d="M107.617 84.2267C107.617 85.1165 106.895 85.8378 106.004 85.8378C105.114 85.8378 104.392 85.1165 104.392 84.2267C104.392 83.337 105.114 82.6157 106.004 82.6157C106.895 82.6157 107.617 83.337 107.617 84.2267Z" fill="#8B57C2"/>
<path d="M117.293 84.2267C117.293 85.1165 116.571 85.8378 115.68 85.8378C114.79 85.8378 114.068 85.1165 114.068 84.2267C114.068 83.337 114.79 82.6157 115.68 82.6157C116.571 82.6157 117.293 83.337 117.293 84.2267Z" fill="#8B57C2"/>
<path d="M20.5324 93.8929C20.5324 94.7827 19.8103 95.5039 18.9197 95.5039C18.029 95.5039 17.307 94.7827 17.307 93.8929C17.307 93.0032 18.029 92.2819 18.9197 92.2819C19.8103 92.2819 20.5324 93.0032 20.5324 93.8929Z" fill="#8B57C2"/>
<path d="M30.2084 93.8929C30.2084 94.7827 29.4864 95.5039 28.5958 95.5039C27.7051 95.5039 26.9831 94.7827 26.9831 93.8929C26.9831 93.0032 27.7051 92.2819 28.5958 92.2819C29.4864 92.2819 30.2084 93.0032 30.2084 93.8929Z" fill="#8B57C2"/>
<path d="M39.8845 93.8929C39.8845 94.7827 39.1625 95.5039 38.2718 95.5039C37.3812 95.5039 36.6592 94.7827 36.6592 93.8929C36.6592 93.0032 37.3812 92.2819 38.2718 92.2819C39.1625 92.2819 39.8845 93.0032 39.8845 93.8929Z" fill="#8B57C2"/>
<path d="M49.5606 93.8929C49.5606 94.7827 48.8386 95.5039 47.9479 95.5039C47.0572 95.5039 46.3352 94.7827 46.3352 93.8929C46.3352 93.0032 47.0572 92.2819 47.9479 92.2819C48.8386 92.2819 49.5606 93.0032 49.5606 93.8929Z" fill="#8B57C2"/>
<path d="M59.2367 93.8929C59.2367 94.7827 58.5146 95.5039 57.624 95.5039C56.7333 95.5039 56.0113 94.7827 56.0113 93.8929C56.0113 93.0032 56.7333 92.2819 57.624 92.2819C58.5146 92.2819 59.2367 93.0032 59.2367 93.8929Z" fill="#8B57C2"/>
<path d="M68.9127 93.8929C68.9127 94.7827 68.1907 95.5039 67.3 95.5039C66.4094 95.5039 65.6874 94.7827 65.6874 93.8929C65.6874 93.0032 66.4094 92.2819 67.3 92.2819C68.1907 92.2819 68.9127 93.0032 68.9127 93.8929Z" fill="#8B57C2"/>
<path d="M78.5888 93.8929C78.5888 94.7827 77.8668 95.5039 76.9761 95.5039C76.0855 95.5039 75.3634 94.7827 75.3634 93.8929C75.3634 93.0032 76.0855 92.2819 76.9761 92.2819C77.8668 92.2819 78.5888 93.0032 78.5888 93.8929Z" fill="#8B57C2"/>
<path d="M88.2649 93.8929C88.2649 94.7827 87.5429 95.5039 86.6522 95.5039C85.7615 95.5039 85.0395 94.7827 85.0395 93.8929C85.0395 93.0032 85.7615 92.2819 86.6522 92.2819C87.5429 92.2819 88.2649 93.0032 88.2649 93.8929Z" fill="#8B57C2"/>
<path d="M97.9409 93.8929C97.9409 94.7827 97.2189 95.5039 96.3283 95.5039C95.4376 95.5039 94.7156 94.7827 94.7156 93.8929C94.7156 93.0032 95.4376 92.2819 96.3283 92.2819C97.2189 92.2819 97.9409 93.0032 97.9409 93.8929Z" fill="#8B57C2"/>
<path d="M107.617 93.8929C107.617 94.7827 106.895 95.5039 106.004 95.5039C105.114 95.5039 104.392 94.7827 104.392 93.8929C104.392 93.0032 105.114 92.2819 106.004 92.2819C106.895 92.2819 107.617 93.0032 107.617 93.8929Z" fill="#8B57C2"/>
<path d="M117.293 93.8929C117.293 94.7827 116.571 95.5039 115.68 95.5039C114.79 95.5039 114.068 94.7827 114.068 93.8929C114.068 93.0032 114.79 92.2819 115.68 92.2819C116.571 92.2819 117.293 93.0032 117.293 93.8929Z" fill="#8B57C2"/>
<path d="M20.5324 103.559C20.5324 104.449 19.8103 105.17 18.9197 105.17C18.029 105.17 17.307 104.449 17.307 103.559C17.307 102.669 18.029 101.948 18.9197 101.948C19.8103 101.948 20.5324 102.669 20.5324 103.559Z" fill="#8B57C2"/>
<path d="M30.2084 103.559C30.2084 104.449 29.4864 105.17 28.5958 105.17C27.7051 105.17 26.9831 104.449 26.9831 103.559C26.9831 102.669 27.7051 101.948 28.5958 101.948C29.4864 101.948 30.2084 102.669 30.2084 103.559Z" fill="#8B57C2"/>
<path d="M39.8845 103.559C39.8845 104.449 39.1625 105.17 38.2718 105.17C37.3812 105.17 36.6592 104.449 36.6592 103.559C36.6592 102.669 37.3812 101.948 38.2718 101.948C39.1625 101.948 39.8845 102.669 39.8845 103.559Z" fill="#8B57C2"/>
<path d="M49.5606 103.559C49.5606 104.449 48.8386 105.17 47.9479 105.17C47.0572 105.17 46.3352 104.449 46.3352 103.559C46.3352 102.669 47.0572 101.948 47.9479 101.948C48.8386 101.948 49.5606 102.669 49.5606 103.559Z" fill="#8B57C2"/>
<path d="M59.2367 103.559C59.2367 104.449 58.5146 105.17 57.624 105.17C56.7333 105.17 56.0113 104.449 56.0113 103.559C56.0113 102.669 56.7333 101.948 57.624 101.948C58.5146 101.948 59.2367 102.669 59.2367 103.559Z" fill="#8B57C2"/>
<path d="M68.9127 103.559C68.9127 104.449 68.1907 105.17 67.3 105.17C66.4094 105.17 65.6874 104.449 65.6874 103.559C65.6874 102.669 66.4094 101.948 67.3 101.948C68.1907 101.948 68.9127 102.669 68.9127 103.559Z" fill="#8B57C2"/>
<path d="M78.5888 103.559C78.5888 104.449 77.8668 105.17 76.9761 105.17C76.0855 105.17 75.3634 104.449 75.3634 103.559C75.3634 102.669 76.0855 101.948 76.9761 101.948C77.8668 101.948 78.5888 102.669 78.5888 103.559Z" fill="#8B57C2"/>
<path d="M88.2649 103.559C88.2649 104.449 87.5429 105.17 86.6522 105.17C85.7615 105.17 85.0395 104.449 85.0395 103.559C85.0395 102.669 85.7615 101.948 86.6522 101.948C87.5429 101.948 88.2649 102.669 88.2649 103.559Z" fill="#8B57C2"/>
<path d="M97.9409 103.559C97.9409 104.449 97.2189 105.17 96.3283 105.17C95.4376 105.17 94.7156 104.449 94.7156 103.559C94.7156 102.669 95.4376 101.948 96.3283 101.948C97.2189 101.948 97.9409 102.669 97.9409 103.559Z" fill="#8B57C2"/>
<path d="M107.617 103.559C107.617 104.449 106.895 105.17 106.004 105.17C105.114 105.17 104.392 104.449 104.392 103.559C104.392 102.669 105.114 101.948 106.004 101.948C106.895 101.948 107.617 102.669 107.617 103.559Z" fill="#8B57C2"/>
<path d="M117.293 103.559C117.293 104.449 116.571 105.17 115.68 105.17C114.79 105.17 114.068 104.449 114.068 103.559C114.068 102.669 114.79 101.948 115.68 101.948C116.571 101.948 117.293 102.669 117.293 103.559Z" fill="#8B57C2"/>
<path d="M20.5324 113.225C20.5324 114.115 19.8103 114.836 18.9197 114.836C18.029 114.836 17.307 114.115 17.307 113.225C17.307 112.336 18.029 111.614 18.9197 111.614C19.8103 111.614 20.5324 112.336 20.5324 113.225Z" fill="#8B57C2"/>
<path d="M30.2084 113.225C30.2084 114.115 29.4864 114.836 28.5958 114.836C27.7051 114.836 26.9831 114.115 26.9831 113.225C26.9831 112.336 27.7051 111.614 28.5958 111.614C29.4864 111.614 30.2084 112.336 30.2084 113.225Z" fill="#8B57C2"/>
<path d="M39.8845 113.225C39.8845 114.115 39.1625 114.836 38.2718 114.836C37.3812 114.836 36.6592 114.115 36.6592 113.225C36.6592 112.336 37.3812 111.614 38.2718 111.614C39.1625 111.614 39.8845 112.336 39.8845 113.225Z" fill="#8B57C2"/>
<path d="M49.5606 113.225C49.5606 114.115 48.8386 114.836 47.9479 114.836C47.0572 114.836 46.3352 114.115 46.3352 113.225C46.3352 112.336 47.0572 111.614 47.9479 111.614C48.8386 111.614 49.5606 112.336 49.5606 113.225Z" fill="#8B57C2"/>
<path d="M59.2367 113.225C59.2367 114.115 58.5146 114.836 57.624 114.836C56.7333 114.836 56.0113 114.115 56.0113 113.225C56.0113 112.336 56.7333 111.614 57.624 111.614C58.5146 111.614 59.2367 112.336 59.2367 113.225Z" fill="#8B57C2"/>
<path d="M68.9127 113.225C68.9127 114.115 68.1907 114.836 67.3 114.836C66.4094 114.836 65.6874 114.115 65.6874 113.225C65.6874 112.336 66.4094 111.614 67.3 111.614C68.1907 111.614 68.9127 112.336 68.9127 113.225Z" fill="#8B57C2"/>
<path d="M78.5888 113.225C78.5888 114.115 77.8668 114.836 76.9761 114.836C76.0855 114.836 75.3634 114.115 75.3634 113.225C75.3634 112.336 76.0855 111.614 76.9761 111.614C77.8668 111.614 78.5888 112.336 78.5888 113.225Z" fill="#8B57C2"/>
<path d="M88.2649 113.225C88.2649 114.115 87.5429 114.836 86.6522 114.836C85.7615 114.836 85.0395 114.115 85.0395 113.225C85.0395 112.336 85.7615 111.614 86.6522 111.614C87.5429 111.614 88.2649 112.336 88.2649 113.225Z" fill="#8B57C2"/>
<path d="M97.9409 113.225C97.9409 114.115 97.2189 114.836 96.3283 114.836C95.4376 114.836 94.7156 114.115 94.7156 113.225C94.7156 112.336 95.4376 111.614 96.3283 111.614C97.2189 111.614 97.9409 112.336 97.9409 113.225Z" fill="#8B57C2"/>
<path d="M107.617 113.225C107.617 114.115 106.895 114.836 106.004 114.836C105.114 114.836 104.392 114.115 104.392 113.225C104.392 112.336 105.114 111.614 106.004 111.614C106.895 111.614 107.617 112.336 107.617 113.225Z" fill="#8B57C2"/>
<path d="M117.293 113.225C117.293 114.115 116.571 114.836 115.68 114.836C114.79 114.836 114.068 114.115 114.068 113.225C114.068 112.336 114.79 111.614 115.68 111.614C116.571 111.614 117.293 112.336 117.293 113.225Z" fill="#8B57C2"/>
<path d="M20.5324 122.891C20.5324 123.781 19.8103 124.502 18.9197 124.502C18.029 124.502 17.307 123.781 17.307 122.891C17.307 122.002 18.029 121.28 18.9197 121.28C19.8103 121.28 20.5324 122.002 20.5324 122.891Z" fill="#8B57C2"/>
<path d="M30.2084 122.891C30.2084 123.781 29.4864 124.502 28.5958 124.502C27.7051 124.502 26.9831 123.781 26.9831 122.891C26.9831 122.002 27.7051 121.28 28.5958 121.28C29.4864 121.28 30.2084 122.002 30.2084 122.891Z" fill="#8B57C2"/>
<path d="M39.8845 122.891C39.8845 123.781 39.1625 124.502 38.2718 124.502C37.3812 124.502 36.6592 123.781 36.6592 122.891C36.6592 122.002 37.3812 121.28 38.2718 121.28C39.1625 121.28 39.8845 122.002 39.8845 122.891Z" fill="#8B57C2"/>
<path d="M49.5606 122.891C49.5606 123.781 48.8386 124.502 47.9479 124.502C47.0572 124.502 46.3352 123.781 46.3352 122.891C46.3352 122.002 47.0572 121.28 47.9479 121.28C48.8386 121.28 49.5606 122.002 49.5606 122.891Z" fill="#8B57C2"/>
<path d="M59.2367 122.891C59.2367 123.781 58.5146 124.502 57.624 124.502C56.7333 124.502 56.0113 123.781 56.0113 122.891C56.0113 122.002 56.7333 121.28 57.624 121.28C58.5146 121.28 59.2367 122.002 59.2367 122.891Z" fill="#8B57C2"/>
<path d="M68.9127 122.891C68.9127 123.781 68.1907 124.502 67.3 124.502C66.4094 124.502 65.6874 123.781 65.6874 122.891C65.6874 122.002 66.4094 121.28 67.3 121.28C68.1907 121.28 68.9127 122.002 68.9127 122.891Z" fill="#8B57C2"/>
<path d="M78.5888 122.891C78.5888 123.781 77.8668 124.502 76.9761 124.502C76.0855 124.502 75.3634 123.781 75.3634 122.891C75.3634 122.002 76.0855 121.28 76.9761 121.28C77.8668 121.28 78.5888 122.002 78.5888 122.891Z" fill="#8B57C2"/>
<path d="M88.2649 122.891C88.2649 123.781 87.5429 124.502 86.6522 124.502C85.7615 124.502 85.0395 123.781 85.0395 122.891C85.0395 122.002 85.7615 121.28 86.6522 121.28C87.5429 121.28 88.2649 122.002 88.2649 122.891Z" fill="#8B57C2"/>
<path d="M97.9409 122.891C97.9409 123.781 97.2189 124.502 96.3283 124.502C95.4376 124.502 94.7156 123.781 94.7156 122.891C94.7156 122.002 95.4376 121.28 96.3283 121.28C97.2189 121.28 97.9409 122.002 97.9409 122.891Z" fill="#8B57C2"/>
<path d="M107.617 122.891C107.617 123.781 106.895 124.502 106.004 124.502C105.114 124.502 104.392 123.781 104.392 122.891C104.392 122.002 105.114 121.28 106.004 121.28C106.895 121.28 107.617 122.002 107.617 122.891Z" fill="#8B57C2"/>
<path d="M117.293 122.891C117.293 123.781 116.571 124.502 115.68 124.502C114.79 124.502 114.068 123.781 114.068 122.891C114.068 122.002 114.79 121.28 115.68 121.28C116.571 121.28 117.293 122.002 117.293 122.891Z" fill="#8B57C2"/>
<path d="M20.5324 132.558C20.5324 133.447 19.8103 134.169 18.9197 134.169C18.029 134.169 17.307 133.447 17.307 132.558C17.307 131.668 18.029 130.947 18.9197 130.947C19.8103 130.947 20.5324 131.668 20.5324 132.558Z" fill="#8B57C2"/>
<path d="M30.2084 132.558C30.2084 133.447 29.4864 134.169 28.5958 134.169C27.7051 134.169 26.9831 133.447 26.9831 132.558C26.9831 131.668 27.7051 130.947 28.5958 130.947C29.4864 130.947 30.2084 131.668 30.2084 132.558Z" fill="#8B57C2"/>
<path d="M39.8845 132.558C39.8845 133.447 39.1625 134.169 38.2718 134.169C37.3812 134.169 36.6592 133.447 36.6592 132.558C36.6592 131.668 37.3812 130.947 38.2718 130.947C39.1625 130.947 39.8845 131.668 39.8845 132.558Z" fill="#8B57C2"/>
<path d="M49.5606 132.558C49.5606 133.447 48.8386 134.169 47.9479 134.169C47.0572 134.169 46.3352 133.447 46.3352 132.558C46.3352 131.668 47.0572 130.947 47.9479 130.947C48.8386 130.947 49.5606 131.668 49.5606 132.558Z" fill="#8B57C2"/>
<path d="M59.2367 132.558C59.2367 133.447 58.5146 134.169 57.624 134.169C56.7333 134.169 56.0113 133.447 56.0113 132.558C56.0113 131.668 56.7333 130.947 57.624 130.947C58.5146 130.947 59.2367 131.668 59.2367 132.558Z" fill="#8B57C2"/>
<path d="M68.9127 132.558C68.9127 133.447 68.1907 134.169 67.3 134.169C66.4094 134.169 65.6874 133.447 65.6874 132.558C65.6874 131.668 66.4094 130.947 67.3 130.947C68.1907 130.947 68.9127 131.668 68.9127 132.558Z" fill="#8B57C2"/>
<path d="M78.5888 132.558C78.5888 133.447 77.8668 134.169 76.9761 134.169C76.0855 134.169 75.3634 133.447 75.3634 132.558C75.3634 131.668 76.0855 130.947 76.9761 130.947C77.8668 130.947 78.5888 131.668 78.5888 132.558Z" fill="#8B57C2"/>
<path d="M88.2649 132.558C88.2649 133.447 87.5429 134.169 86.6522 134.169C85.7615 134.169 85.0395 133.447 85.0395 132.558C85.0395 131.668 85.7615 130.947 86.6522 130.947C87.5429 130.947 88.2649 131.668 88.2649 132.558Z" fill="#8B57C2"/>
<path d="M97.9409 132.558C97.9409 133.447 97.2189 134.169 96.3283 134.169C95.4376 134.169 94.7156 133.447 94.7156 132.558C94.7156 131.668 95.4376 130.947 96.3283 130.947C97.2189 130.947 97.9409 131.668 97.9409 132.558Z" fill="#8B57C2"/>
<path d="M107.617 132.558C107.617 133.447 106.895 134.169 106.004 134.169C105.114 134.169 104.392 133.447 104.392 132.558C104.392 131.668 105.114 130.947 106.004 130.947C106.895 130.947 107.617 131.668 107.617 132.558Z" fill="#8B57C2"/>
<path d="M117.293 132.558C117.293 133.447 116.571 134.169 115.68 134.169C114.79 134.169 114.068 133.447 114.068 132.558C114.068 131.668 114.79 130.947 115.68 130.947C116.571 130.947 117.293 131.668 117.293 132.558Z" fill="#8B57C2"/>
<path d="M20.5324 142.224C20.5324 143.114 19.8103 143.835 18.9197 143.835C18.029 143.835 17.307 143.114 17.307 142.224C17.307 141.334 18.029 140.613 18.9197 140.613C19.8103 140.613 20.5324 141.334 20.5324 142.224Z" fill="#8B57C2"/>
<path d="M30.2084 142.224C30.2084 143.114 29.4864 143.835 28.5958 143.835C27.7051 143.835 26.9831 143.114 26.9831 142.224C26.9831 141.334 27.7051 140.613 28.5958 140.613C29.4864 140.613 30.2084 141.334 30.2084 142.224Z" fill="#8B57C2"/>
<path d="M39.8845 142.224C39.8845 143.114 39.1625 143.835 38.2718 143.835C37.3812 143.835 36.6592 143.114 36.6592 142.224C36.6592 141.334 37.3812 140.613 38.2718 140.613C39.1625 140.613 39.8845 141.334 39.8845 142.224Z" fill="#8B57C2"/>
<path d="M49.5606 142.224C49.5606 143.114 48.8386 143.835 47.9479 143.835C47.0572 143.835 46.3352 143.114 46.3352 142.224C46.3352 141.334 47.0572 140.613 47.9479 140.613C48.8386 140.613 49.5606 141.334 49.5606 142.224Z" fill="#8B57C2"/>
<path d="M59.2367 142.224C59.2367 143.114 58.5146 143.835 57.624 143.835C56.7333 143.835 56.0113 143.114 56.0113 142.224C56.0113 141.334 56.7333 140.613 57.624 140.613C58.5146 140.613 59.2367 141.334 59.2367 142.224Z" fill="#8B57C2"/>
<path d="M68.9127 142.224C68.9127 143.114 68.1907 143.835 67.3 143.835C66.4094 143.835 65.6874 143.114 65.6874 142.224C65.6874 141.334 66.4094 140.613 67.3 140.613C68.1907 140.613 68.9127 141.334 68.9127 142.224Z" fill="#8B57C2"/>
<path d="M78.5888 142.224C78.5888 143.114 77.8668 143.835 76.9761 143.835C76.0855 143.835 75.3634 143.114 75.3634 142.224C75.3634 141.334 76.0855 140.613 76.9761 140.613C77.8668 140.613 78.5888 141.334 78.5888 142.224Z" fill="#8B57C2"/>
<path d="M88.2649 142.224C88.2649 143.114 87.5429 143.835 86.6522 143.835C85.7615 143.835 85.0395 143.114 85.0395 142.224C85.0395 141.334 85.7615 140.613 86.6522 140.613C87.5429 140.613 88.2649 141.334 88.2649 142.224Z" fill="#8B57C2"/>
<path d="M97.9409 142.224C97.9409 143.114 97.2189 143.835 96.3283 143.835C95.4376 143.835 94.7156 143.114 94.7156 142.224C94.7156 141.334 95.4376 140.613 96.3283 140.613C97.2189 140.613 97.9409 141.334 97.9409 142.224Z" fill="#8B57C2"/>
<path d="M107.617 142.224C107.617 143.114 106.895 143.835 106.004 143.835C105.114 143.835 104.392 143.114 104.392 142.224C104.392 141.334 105.114 140.613 106.004 140.613C106.895 140.613 107.617 141.334 107.617 142.224Z" fill="#8B57C2"/>
<path d="M117.293 142.224C117.293 143.114 116.571 143.835 115.68 143.835C114.79 143.835 114.068 143.114 114.068 142.224C114.068 141.334 114.79 140.613 115.68 140.613C116.571 140.613 117.293 141.334 117.293 142.224Z" fill="#8B57C2"/>
<path d="M20.5324 151.89C20.5324 152.78 19.8103 153.501 18.9197 153.501C18.029 153.501 17.307 152.78 17.307 151.89C17.307 151 18.029 150.279 18.9197 150.279C19.8103 150.279 20.5324 151 20.5324 151.89Z" fill="#8B57C2"/>
<path d="M30.2084 151.89C30.2084 152.78 29.4864 153.501 28.5958 153.501C27.7051 153.501 26.9831 152.78 26.9831 151.89C26.9831 151 27.7051 150.279 28.5958 150.279C29.4864 150.279 30.2084 151 30.2084 151.89Z" fill="#8B57C2"/>
<path d="M39.8845 151.89C39.8845 152.78 39.1625 153.501 38.2718 153.501C37.3812 153.501 36.6592 152.78 36.6592 151.89C36.6592 151 37.3812 150.279 38.2718 150.279C39.1625 150.279 39.8845 151 39.8845 151.89Z" fill="#8B57C2"/>
<path d="M49.5606 151.89C49.5606 152.78 48.8386 153.501 47.9479 153.501C47.0572 153.501 46.3352 152.78 46.3352 151.89C46.3352 151 47.0572 150.279 47.9479 150.279C48.8386 150.279 49.5606 151 49.5606 151.89Z" fill="#8B57C2"/>
<path d="M59.2367 151.89C59.2367 152.78 58.5146 153.501 57.624 153.501C56.7333 153.501 56.0113 152.78 56.0113 151.89C56.0113 151 56.7333 150.279 57.624 150.279C58.5146 150.279 59.2367 151 59.2367 151.89Z" fill="#8B57C2"/>
<path d="M68.9127 151.89C68.9127 152.78 68.1907 153.501 67.3 153.501C66.4094 153.501 65.6874 152.78 65.6874 151.89C65.6874 151 66.4094 150.279 67.3 150.279C68.1907 150.279 68.9127 151 68.9127 151.89Z" fill="#8B57C2"/>
<path d="M78.5888 151.89C78.5888 152.78 77.8668 153.501 76.9761 153.501C76.0855 153.501 75.3634 152.78 75.3634 151.89C75.3634 151 76.0855 150.279 76.9761 150.279C77.8668 150.279 78.5888 151 78.5888 151.89Z" fill="#8B57C2"/>
<path d="M88.2649 151.89C88.2649 152.78 87.5429 153.501 86.6522 153.501C85.7615 153.501 85.0395 152.78 85.0395 151.89C85.0395 151 85.7615 150.279 86.6522 150.279C87.5429 150.279 88.2649 151 88.2649 151.89Z" fill="#8B57C2"/>
<path d="M97.9409 151.89C97.9409 152.78 97.2189 153.501 96.3283 153.501C95.4376 153.501 94.7156 152.78 94.7156 151.89C94.7156 151 95.4376 150.279 96.3283 150.279C97.2189 150.279 97.9409 151 97.9409 151.89Z" fill="#8B57C2"/>
<path d="M107.617 151.89C107.617 152.78 106.895 153.501 106.004 153.501C105.114 153.501 104.392 152.78 104.392 151.89C104.392 151 105.114 150.279 106.004 150.279C106.895 150.279 107.617 151 107.617 151.89Z" fill="#8B57C2"/>
<path d="M117.293 151.89C117.293 152.78 116.571 153.501 115.68 153.501C114.79 153.501 114.068 152.78 114.068 151.89C114.068 151 114.79 150.279 115.68 150.279C116.571 150.279 117.293 151 117.293 151.89Z" fill="#8B57C2"/>
<path d="M20.5324 161.556C20.5324 162.446 19.8103 163.167 18.9197 163.167C18.029 163.167 17.307 162.446 17.307 161.556C17.307 160.666 18.029 159.945 18.9197 159.945C19.8103 159.945 20.5324 160.666 20.5324 161.556Z" fill="#8B57C2"/>
<path d="M30.2084 161.556C30.2084 162.446 29.4864 163.167 28.5958 163.167C27.7051 163.167 26.9831 162.446 26.9831 161.556C26.9831 160.666 27.7051 159.945 28.5958 159.945C29.4864 159.945 30.2084 160.666 30.2084 161.556Z" fill="#8B57C2"/>
<path d="M39.8845 161.556C39.8845 162.446 39.1625 163.167 38.2718 163.167C37.3812 163.167 36.6592 162.446 36.6592 161.556C36.6592 160.666 37.3812 159.945 38.2718 159.945C39.1625 159.945 39.8845 160.666 39.8845 161.556Z" fill="#8B57C2"/>
<path d="M49.5606 161.556C49.5606 162.446 48.8386 163.167 47.9479 163.167C47.0572 163.167 46.3352 162.446 46.3352 161.556C46.3352 160.666 47.0572 159.945 47.9479 159.945C48.8386 159.945 49.5606 160.666 49.5606 161.556Z" fill="#8B57C2"/>
<path d="M59.2367 161.556C59.2367 162.446 58.5146 163.167 57.624 163.167C56.7333 163.167 56.0113 162.446 56.0113 161.556C56.0113 160.666 56.7333 159.945 57.624 159.945C58.5146 159.945 59.2367 160.666 59.2367 161.556Z" fill="#8B57C2"/>
<path d="M68.9127 161.556C68.9127 162.446 68.1907 163.167 67.3 163.167C66.4094 163.167 65.6874 162.446 65.6874 161.556C65.6874 160.666 66.4094 159.945 67.3 159.945C68.1907 159.945 68.9127 160.666 68.9127 161.556Z" fill="#8B57C2"/>
<path d="M78.5888 161.556C78.5888 162.446 77.8668 163.167 76.9761 163.167C76.0855 163.167 75.3634 162.446 75.3634 161.556C75.3634 160.666 76.0855 159.945 76.9761 159.945C77.8668 159.945 78.5888 160.666 78.5888 161.556Z" fill="#8B57C2"/>
<path d="M88.2649 161.556C88.2649 162.446 87.5429 163.167 86.6522 163.167C85.7615 163.167 85.0395 162.446 85.0395 161.556C85.0395 160.666 85.7615 159.945 86.6522 159.945C87.5429 159.945 88.2649 160.666 88.2649 161.556Z" fill="#8B57C2"/>
<path d="M97.9409 161.556C97.9409 162.446 97.2189 163.167 96.3283 163.167C95.4376 163.167 94.7156 162.446 94.7156 161.556C94.7156 160.666 95.4376 159.945 96.3283 159.945C97.2189 159.945 97.9409 160.666 97.9409 161.556Z" fill="#8B57C2"/>
<path d="M107.617 161.556C107.617 162.446 106.895 163.167 106.004 163.167C105.114 163.167 104.392 162.446 104.392 161.556C104.392 160.666 105.114 159.945 106.004 159.945C106.895 159.945 107.617 160.666 107.617 161.556Z" fill="#8B57C2"/>
<path d="M117.293 161.556C117.293 162.446 116.571 163.167 115.68 163.167C114.79 163.167 114.068 162.446 114.068 161.556C114.068 160.666 114.79 159.945 115.68 159.945C116.571 159.945 117.293 160.666 117.293 161.556Z" fill="#8B57C2"/>
<path fill-rule="evenodd" clip-rule="evenodd" d="M124.658 23.0322C137.664 26.2207 150.478 26.0414 163.163 30.3355C181.741 36.6246 205.522 36.9442 215.549 53.8012C225.66 70.7995 221.172 94.3071 211.465 111.539C202.457 127.531 181.484 130.324 166.484 140.903C151.802 151.258 142.611 172.102 124.658 172.763C106.684 173.425 95.8444 153.501 80.5315 144.068C63.3605 133.49 39.1584 131.982 29.616 114.215C19.7338 95.8148 24.3906 72.6953 31.6885 53.1262C38.7732 34.1288 50.1732 13.6095 69.4633 7.36528C88.1151 1.32769 105.617 18.3644 124.658 23.0322Z" fill="url(#paint1_linear_43_1897)"/>
<path fill-rule="evenodd" clip-rule="evenodd" d="M110.252 34.1108C96.7252 36.7662 83.3987 36.6169 70.2071 40.1929C50.8863 45.4305 26.155 45.6966 15.7272 59.7351C5.21203 73.8912 9.87917 93.4682 19.9742 107.819C29.3428 121.137 51.1543 123.463 66.7534 132.273C82.022 140.896 91.5803 158.255 110.252 158.806C128.943 159.357 140.216 142.765 156.141 134.909C173.999 126.1 199.168 124.844 209.092 110.047C219.369 94.7238 214.526 75.47 206.937 59.173C199.569 43.352 187.713 26.2636 167.652 21.0635C148.255 16.0354 130.054 30.2235 110.252 34.1108Z" stroke="#8B57C2" stroke-width="3"/>
<defs>
<linearGradient id="paint0_linear_43_1897" x1="99.439" y1="0" x2="99.439" y2="166.693" gradientUnits="userSpaceOnUse">
<stop stop-color="#9567B0"/>
<stop offset="1" stop-color="#DC8887"/>
</linearGradient>
<linearGradient id="paint1_linear_43_1897" x1="122.624" y1="6.08594" x2="122.624" y2="172.779" gradientUnits="userSpaceOnUse">
<stop stop-color="#9567B0"/>
<stop offset="1" stop-color="#DC8887"/>
</linearGradient>
</defs>
</svg>
