<svg width="64" height="26" viewBox="0 0 64 26" fill="none" xmlns="http://www.w3.org/2000/svg">
<g clip-path="url(#clip0_45_928)">
<mask id="mask0_45_928" style="mask-type:luminance" maskUnits="userSpaceOnUse" x="0" y="0" width="64" height="26">
<path d="M64 0H0V26H64V0Z" fill="white"/>
</mask>
<g mask="url(#mask0_45_928)">
<path d="M6.03981 0.000542634C7.60523 -0.020234 9.11775 0.556321 10.2588 1.60877V4.71153C9.74689 2.89236 8.10742 1.62523 6.03981 1.62523C3.54098 1.62523 1.6547 3.47732 1.6547 5.93081C1.6547 8.38427 3.54098 10.2364 6.03981 10.2364C7.94286 10.2364 9.48175 9.1637 10.111 7.57193H4.38511V5.94127H10.2588V10.2468C9.11775 11.2993 7.60523 11.8758 6.03981 11.8551C2.59785 11.8551 0 9.31181 0 5.92483C0 2.53781 2.59785 0.000542634 6.03981 0.000542634Z" fill="white"/>
<path d="M11.749 0.238495H20.6838V1.86318H13.3976V5.11255H20.6777V6.73275H13.3976V9.98211H20.6777V11.6068H11.749V0.238495Z" fill="white"/>
<path d="M22.1738 0.238495H25.6493L30.8449 11.6083V0.238495H32.4997V11.6083H29.0242L23.8285 0.238495V11.6083H22.1738V0.238495Z" fill="white"/>
<path d="M33.6624 9.98662H37.883V1.86318H33.6624V0.238495H43.7565V1.86318H39.5331V9.98662H43.7519V11.6113H33.6624V9.98662Z" fill="white"/>
<path d="M44.5794 6.28394V0.239993H46.2339V6.31687C46.2339 8.62373 47.9893 10.3127 50.3388 10.3127C52.6548 10.3127 54.509 8.62373 54.509 6.31687V0.238495H56.1637V6.28394C56.1637 9.48394 53.5828 11.9374 50.3388 11.9374C49.5794 11.9481 48.8259 11.8092 48.1222 11.5289C47.4188 11.2486 46.7794 10.8325 46.2425 10.3054C45.7056 9.77834 45.2816 9.15087 44.996 8.46011C44.7105 7.76939 44.5687 7.02939 44.5794 6.28394Z" fill="white"/>
<path d="M56.909 10.8154V7.84127C57.0733 9.24004 58.5133 10.1736 59.8693 10.1736C60.8444 10.1736 61.8715 9.63651 61.8715 8.56386C61.8715 6.27344 56.9075 6.90775 56.9075 3.34871C56.9075 1.28568 58.5453 0.0664126 60.5475 0.0664126C61.4767 0.0592707 62.3832 0.350286 63.1284 0.895213V3.88727C62.9761 2.57226 61.8884 1.69409 60.5641 1.69409C59.5875 1.69409 58.5619 2.1429 58.5619 3.25445C58.5619 5.64808 63.5262 5.1873 63.5262 8.61622C63.5262 10.6628 61.8379 11.8013 59.8862 11.8013C58.8099 11.8058 57.7625 11.459 56.909 10.8154Z" fill="white"/>
<path d="M58.201 14.6123H39.457C36.2543 14.6123 33.658 17.1615 33.658 20.3062C33.658 23.4508 36.2543 26.0001 39.457 26.0001H58.201C61.4038 26.0001 64.0001 23.4508 64.0001 20.3062C64.0001 17.1615 61.4038 14.6123 58.201 14.6123Z" fill="#FF3900"/>
<path d="M37.4182 21.0033V20.9554H38.081V21.0033C38.081 21.3384 38.5185 21.5 39.4099 21.5C40.1961 21.5 40.6148 21.3504 40.6148 21.0706V21.0227C40.6148 20.8014 40.3881 20.7071 39.745 20.6398L38.9573 20.559C37.985 20.4588 37.5539 20.1894 37.5539 19.6509V19.5836C37.5539 18.9657 38.2382 18.5962 39.3822 18.5962C40.5677 18.5962 41.2733 18.9986 41.2733 19.6718V19.7182H40.6225V19.6718C40.6225 19.3487 40.1976 19.1737 39.3548 19.1737C38.6358 19.1737 38.2259 19.3233 38.2259 19.5701V19.618C38.2259 19.8394 38.4314 19.9471 38.9588 19.995L39.7588 20.0683C40.8253 20.1685 41.2822 20.4513 41.2822 21.0093V21.0766C41.2822 21.702 40.5631 22.0849 39.3853 22.0849C38.1634 22.0849 37.4182 21.675 37.4182 21.0033Z" fill="white"/>
<path d="M46.2512 20.2838V20.3915C46.2512 21.4192 45.4635 22.085 44.2306 22.085C43.762 22.0976 43.3053 21.9375 42.9509 21.6362V23.1427H42.2927V18.677H42.902L42.9296 19.06C43.29 18.7528 43.7536 18.5876 44.2306 18.5962C45.4635 18.5962 46.2512 19.2545 46.2512 20.2838ZM45.573 20.2838C45.573 19.5971 45.0595 19.1872 44.2247 19.1872C43.6838 19.1872 43.2038 19.3892 42.9509 19.7123V20.963C43.2038 21.2846 43.6838 21.494 44.2247 21.494C45.0595 21.494 45.573 21.0766 45.573 20.3915V20.2838Z" fill="white"/>
<path d="M51.4404 21.4327V22.0042H50.9834C50.5262 22.0042 50.2216 21.8291 50.1071 21.5135C49.7447 21.9039 49.2388 22.085 48.5471 22.085C47.5674 22.085 47.0234 21.7349 47.0234 21.1095C47.0234 20.5785 47.441 20.2434 48.2345 20.1626L50.0631 19.9741C50.0357 19.4699 49.6317 19.2081 48.8776 19.2081C48.1524 19.2081 47.6939 19.4699 47.6939 19.8739V19.8978H47.0431V19.8709C47.0431 19.1034 47.7761 18.5932 48.8853 18.5932C50.0416 18.5932 50.7136 19.1243 50.7136 20.0249V21.0602C50.7136 21.2951 50.8659 21.4297 51.1373 21.4297L51.4404 21.4327ZM50.0693 20.8552V20.4962L48.3841 20.6697C47.9056 20.7176 47.6801 20.8582 47.6801 21.1066C47.6801 21.3549 47.9742 21.5105 48.5425 21.5105C49.277 21.5135 49.8253 21.2711 50.0647 20.8552H50.0693Z" fill="white"/>
<path d="M51.7942 20.4109V20.2897C51.7942 19.2425 52.5742 18.5962 53.8145 18.5962C54.9373 18.5962 55.7585 19.1946 55.7585 20.0279V20.0548H55.0807V20.0279C55.0807 19.5372 54.5533 19.1871 53.8145 19.1871C52.9717 19.1871 52.472 19.597 52.472 20.2972V20.4049C52.472 21.0826 52.9717 21.494 53.8145 21.494C54.5594 21.494 55.0807 21.1439 55.0807 20.6592V20.6323H55.7557V20.6592C55.7557 21.5 54.9619 22.0849 53.8114 22.0849C52.585 22.0849 51.7942 21.4327 51.7942 20.4109Z" fill="white"/>
<path d="M60.3356 20.553H57.0688C57.1101 21.1364 57.6036 21.494 58.3836 21.494C59.1091 21.494 59.6027 21.2307 59.6301 20.8417H60.3356C60.2593 21.6211 59.5341 22.0849 58.3836 22.0849C57.1648 22.0849 56.3845 21.4401 56.3845 20.4183V20.2687C56.3845 19.241 57.1587 18.5887 58.3836 18.5887C59.6088 18.5887 60.3356 19.214 60.3356 20.2418V20.553ZM57.0824 20.0144H59.6362C59.5553 19.4968 59.0953 19.1871 58.3836 19.1871C57.6722 19.1871 57.1784 19.4968 57.0824 20.0144Z" fill="white"/>
<path d="M35.1003 19.2437C35.0513 19.2444 35.0024 19.2477 34.9535 19.2474C34.8027 19.2464 34.6526 19.2412 34.5024 19.2319C34.3526 19.2225 34.2027 19.209 34.0535 19.1919C33.9043 19.1748 33.7557 19.1543 33.6073 19.1303C33.459 19.1063 33.311 19.079 33.1637 19.0489C33.0163 19.0187 32.8695 18.9857 32.723 18.9501C32.5766 18.9145 32.4307 18.8764 32.2858 18.8362C32.1406 18.796 31.9957 18.7537 31.8517 18.7097C31.708 18.6656 31.5649 18.6199 31.4221 18.5728C31.1372 18.4785 30.8526 18.3782 30.5684 18.2755C30.2842 18.1727 30.0003 18.0674 29.7161 17.9621C29.4321 17.8569 29.1478 17.7517 28.8629 17.6498C28.578 17.5478 28.2927 17.4489 28.0063 17.3562C27.863 17.3099 27.7195 17.265 27.5757 17.2221C27.4319 17.1792 27.2877 17.1386 27.1433 17.0998C26.9988 17.0611 26.8541 17.0245 26.7089 16.9907C26.5637 16.9568 26.4177 16.9253 26.2716 16.897C26.1254 16.8688 25.9789 16.8436 25.8318 16.8218C25.6847 16.7999 25.5373 16.7815 25.3891 16.7667C25.2409 16.752 25.0924 16.7412 24.943 16.7343C24.7937 16.7274 24.6437 16.7246 24.4931 16.7263C24.338 16.728 24.1831 16.735 24.0285 16.7465C23.8739 16.758 23.7194 16.7743 23.5659 16.7954C23.4124 16.8166 23.2594 16.8425 23.1076 16.8731C22.9558 16.9037 22.8052 16.939 22.6557 16.9789C22.5062 17.0188 22.3581 17.0631 22.2116 17.1121C22.1796 17.1227 22.1485 17.1362 22.1167 17.1473C22.7086 18.9958 24.3006 20.9099 27.1462 23.258C28.1679 24.101 29.0603 24.7907 29.1295 24.7907C29.4663 24.7907 32.0824 22.6333 33.4107 21.26C34.0778 20.5706 34.6403 19.8967 35.1003 19.2437Z" fill="#FECB00"/>
<path d="M25.3401 11.7908C24.6698 11.7965 24.0156 11.942 23.5242 12.2406C22.2547 13.0118 21.827 13.8468 21.8468 15.5149C21.8534 16.0596 21.9418 16.6007 22.1168 17.1474C22.1487 17.1362 22.1797 17.1228 22.2117 17.1121C22.3583 17.0631 22.5063 17.0188 22.6558 16.9789C22.8053 16.9391 22.956 16.9037 23.1078 16.8731C23.2596 16.8425 23.4125 16.8166 23.566 16.7955C23.7195 16.7743 23.874 16.7581 24.0286 16.7465C24.1832 16.735 24.3381 16.7281 24.4932 16.7263C24.6438 16.7246 24.7938 16.7275 24.9432 16.7343C25.0925 16.7412 25.2411 16.752 25.3892 16.7668C25.5374 16.7815 25.6848 16.8 25.8319 16.8218C25.979 16.8436 26.1256 16.8689 26.2717 16.8971C26.4178 16.9253 26.5638 16.9568 26.709 16.9907C26.8542 17.0246 26.9989 17.0611 27.1434 17.0998C27.2879 17.1386 27.4321 17.1792 27.5759 17.2222C27.7197 17.2651 27.8632 17.3099 28.0064 17.3562C28.2929 17.4489 28.5782 17.5479 28.863 17.6498C29.1479 17.7517 29.4322 17.8569 29.7163 17.9622C30.0004 18.0675 30.2844 18.1728 30.5686 18.2755C30.8527 18.3782 31.1373 18.4786 31.4222 18.5728C31.565 18.6199 31.708 18.6656 31.8517 18.7097C31.9957 18.7538 32.1407 18.7961 32.2859 18.8362C32.4308 18.8765 32.5767 18.9145 32.7231 18.9501C32.8693 18.9857 33.0164 19.0187 33.1637 19.0489C33.3111 19.0791 33.4591 19.1063 33.6074 19.1303C33.7557 19.1543 33.9044 19.1748 34.0536 19.1919C34.2028 19.209 34.3527 19.2226 34.5025 19.2319C34.6527 19.2412 34.8028 19.2466 34.9536 19.2474C35.0025 19.2477 35.0514 19.2444 35.1004 19.2437C36.993 16.5577 37.129 14.2256 35.4145 12.6372C34.8317 12.0972 34.3742 11.9214 33.333 11.8379C31.7059 11.7074 30.655 12.1661 29.8593 13.3542C29.2256 14.3003 29.0224 14.3779 28.8173 13.7531C28.738 13.5115 28.3383 13.0037 27.929 12.6245C27.3347 12.0738 26.3199 11.7826 25.3401 11.7908Z" fill="#0068C2"/>
<path opacity="0.217903" d="M30.9572 22.9428C34.1553 19.655 35.3639 17.6154 35.3679 15.4989C35.3707 13.8183 34.8384 12.8774 33.5479 12.2842L32.5061 11.8052L33.5923 11.9225C35.5898 12.1382 36.8563 14.0395 36.4821 16.2606C36.1999 17.9355 35.1092 19.5641 32.7255 21.8704C29.9643 24.5418 28.5926 25.3737 30.9572 22.9428ZM27.827 13.986C27.3068 13.0742 26.8704 12.6544 26.0836 12.309C25.0626 11.8607 25.0543 11.8481 25.7812 11.8438C27.1744 11.8356 29.2825 13.6638 29.0839 14.7081C28.9487 15.4198 28.497 15.1603 27.827 13.986Z" fill="white"/>
<path opacity="0.367623" d="M24.553 12.8992C24.2476 12.8974 23.9211 13.0846 23.5247 13.468C22.4179 14.433 23.0828 18.2683 23.5768 15.8307C23.6681 15.4287 24.274 14.8695 24.6664 14.589C25.5742 13.9399 25.7295 13.7076 25.2511 13.245C25.0155 13.0171 24.7906 12.9008 24.553 12.8992ZM31.9569 12.9524C31.5237 12.9496 31.0658 13.2664 30.7564 13.8453C30.2688 14.7571 30.5436 14.8036 31.2575 14.8036C31.5923 14.8036 31.9175 14.5393 32.3018 14.2164C32.9501 13.6717 32.9714 13.6008 32.5926 13.2285C32.404 13.0431 32.1837 12.9539 31.9569 12.9524Z" fill="white"/>
</g>
</g>
<defs>
<clipPath id="clip0_45_928">
<rect width="64" height="26" fill="white"/>
</clipPath>
</defs>
</svg>
