<svg width="523" height="1026" viewBox="0 0 523 1026" fill="none" xmlns="http://www.w3.org/2000/svg">
<path fill-rule="evenodd" clip-rule="evenodd" d="M1025 513C1025 795.77 795.77 1025 513 1025C230.23 1025 1 795.77 1 513C1 230.23 230.23 1 513 1C795.77 1 1025 230.23 1025 513ZM1026 513C1026 796.322 796.322 1026 513 1026C229.678 1026 0 796.322 0 513C0 229.678 229.678 0 513 0C796.322 0 1026 229.678 1026 513ZM736.234 512.536C736.234 635.568 636.497 735.306 513.464 735.306C390.432 735.306 290.694 635.568 290.694 512.536C290.694 389.503 390.432 289.766 513.464 289.766C636.497 289.766 736.234 389.503 736.234 512.536ZM737.234 512.536C737.234 636.121 637.049 736.306 513.464 736.306C389.879 736.306 289.694 636.121 289.694 512.536C289.694 388.951 389.879 288.766 513.464 288.766C637.049 288.766 737.234 388.951 737.234 512.536ZM513 923.793C739.875 923.793 923.793 739.875 923.793 513C923.793 286.125 739.875 102.207 513 102.207C286.125 102.207 102.207 286.125 102.207 513C102.207 739.875 286.125 923.793 513 923.793ZM513 924.793C740.427 924.793 924.793 740.427 924.793 513C924.793 285.573 740.427 101.207 513 101.207C285.573 101.207 101.207 285.573 101.207 513C101.207 740.427 285.573 924.793 513 924.793ZM813.3 513C813.3 678.851 678.851 813.3 513 813.3C347.149 813.3 212.7 678.851 212.7 513C212.7 347.149 347.149 212.7 513 212.7C678.851 212.7 813.3 347.149 813.3 513ZM814.3 513C814.3 679.404 679.404 814.3 513 814.3C346.596 814.3 211.7 679.404 211.7 513C211.7 346.596 346.596 211.7 513 211.7C679.404 211.7 814.3 346.596 814.3 513Z" fill="#373737"/>
</svg>
