<svg width="72" height="72" viewBox="0 0 72 72" fill="none" xmlns="http://www.w3.org/2000/svg">
<path d="M72 36.1659C72 26.6621 68.2072 17.5476 61.4558 10.8274C54.7045 4.10717 45.5478 0.3318 36 0.331799C26.4522 0.331798 17.2955 4.10717 10.5442 10.8274C3.79285 17.5476 4.5889e-06 26.6621 3.14722e-06 36.1659H1.44C1.44 27.0423 5.08114 18.2923 11.5624 11.8409C18.0437 5.38951 26.8341 1.76516 36 1.76516C45.1659 1.76516 53.9564 5.38952 60.4376 11.8409C66.9189 18.2923 70.56 27.0423 70.56 36.1659H72Z" fill="url(#paint0_linear_2530_852)"/>
<path d="M72 35.8341C72 45.3379 68.2072 54.4524 61.4558 61.1726C54.7045 67.8928 45.5478 71.6682 36 71.6682C26.4522 71.6682 17.2955 67.8928 10.5442 61.1726C3.79285 54.4524 4.5889e-06 45.3379 3.14722e-06 35.8341H1.44C1.44 44.9578 5.08114 53.7077 11.5624 60.1591C18.0437 66.6105 26.8341 70.2348 36 70.2348C45.1659 70.2348 53.9564 66.6105 60.4376 60.1591C66.9189 53.7077 70.56 44.9577 70.56 35.8341H72Z" fill="url(#paint1_linear_2530_852)"/>
<path d="M6.29444e-06 1.32718C5.45974e-06 10.831 3.79285 19.9455 10.5442 26.6657C17.2955 33.3859 26.4522 37.1613 36 37.1613C45.5478 37.1613 54.7045 33.3859 61.4558 26.6657C68.2072 19.9455 72 10.831 72 1.3272L70.56 1.3272C70.56 10.4508 66.9189 19.2008 60.4376 25.6522C53.9563 32.1036 45.1659 35.7279 36 35.7279C26.8341 35.7279 18.0436 32.1036 11.5624 25.6522C5.08114 19.2008 1.44001 10.4508 1.44001 1.32718L6.29444e-06 1.32718Z" fill="url(#paint2_linear_2530_852)"/>
<path d="M6.29444e-06 70.6728C5.45974e-06 61.169 3.79285 52.0545 10.5442 45.3343C17.2955 38.6141 26.4522 34.8387 36 34.8387C45.5478 34.8387 54.7045 38.6141 61.4558 45.3343C68.2072 52.0545 72 61.169 72 70.6728H70.56C70.56 61.5492 66.9189 52.7992 60.4376 46.3478C53.9563 39.8964 45.1659 36.2721 36 36.2721C26.8341 36.2721 18.0436 39.8964 11.5624 46.3478C5.08114 52.7992 1.44001 61.5492 1.44001 70.6728H6.29444e-06Z" fill="url(#paint3_linear_2530_852)"/>
<path d="M0 72C9.54779 72 18.7045 68.2246 25.4558 61.5044C32.2071 54.7842 36 45.6697 36 36.1659C36 26.6621 32.2072 17.5476 25.4558 10.8274C18.7045 4.10717 9.5478 0.331799 8.23348e-06 0.331797L8.17054e-06 1.76516C9.16589 1.76516 17.9564 5.38952 24.4376 11.8409C30.9189 18.2923 34.56 27.0423 34.56 36.1659C34.56 45.2895 30.9189 54.0395 24.4376 60.4909C17.9564 66.9423 9.16588 70.5666 6.29445e-08 70.5666L0 72Z" fill="url(#paint4_linear_2530_852)"/>
<path d="M72 71.6682C62.4522 71.6682 53.2955 67.8928 46.5442 61.1726C39.7929 54.4524 36 45.3379 36 35.8341C36 26.3303 39.7928 17.2158 46.5442 10.4956C53.2955 3.77537 62.4522 1.85046e-06 72 0V1.43336C62.8341 1.43337 54.0436 5.05772 47.5624 11.5091C41.0811 17.9605 37.44 26.7105 37.44 35.8341C37.44 44.9577 41.0811 53.7077 47.5624 60.1591C54.0437 66.6105 62.8341 70.2348 72 70.2348V71.6682Z" fill="url(#paint5_linear_2530_852)"/>
<defs>
<linearGradient id="paint0_linear_2530_852" x1="36" y1="0" x2="36" y2="72" gradientUnits="userSpaceOnUse">
<stop stop-color="#9567B0"/>
<stop offset="1" stop-color="#DC8887"/>
</linearGradient>
<linearGradient id="paint1_linear_2530_852" x1="36" y1="0" x2="36" y2="72" gradientUnits="userSpaceOnUse">
<stop stop-color="#9567B0"/>
<stop offset="1" stop-color="#DC8887"/>
</linearGradient>
<linearGradient id="paint2_linear_2530_852" x1="36" y1="0" x2="36" y2="72" gradientUnits="userSpaceOnUse">
<stop stop-color="#9567B0"/>
<stop offset="1" stop-color="#DC8887"/>
</linearGradient>
<linearGradient id="paint3_linear_2530_852" x1="36" y1="0" x2="36" y2="72" gradientUnits="userSpaceOnUse">
<stop stop-color="#9567B0"/>
<stop offset="1" stop-color="#DC8887"/>
</linearGradient>
<linearGradient id="paint4_linear_2530_852" x1="36" y1="0" x2="36" y2="72" gradientUnits="userSpaceOnUse">
<stop stop-color="#9567B0"/>
<stop offset="1" stop-color="#DC8887"/>
</linearGradient>
<linearGradient id="paint5_linear_2530_852" x1="36" y1="0" x2="36" y2="72" gradientUnits="userSpaceOnUse">
<stop stop-color="#9567B0"/>
<stop offset="1" stop-color="#DC8887"/>
</linearGradient>
</defs>
</svg>
