<svg width="72" height="73" viewBox="0 0 72 73" fill="none" xmlns="http://www.w3.org/2000/svg">
<path d="M59.3333 23.7744C59.3333 36.6285 48.8866 47.0488 36 47.0488C23.1134 47.0488 12.6667 36.6285 12.6667 23.7744C12.6667 10.9203 23.1134 0.5 36 0.5C48.8866 0.5 59.3333 10.9203 59.3333 23.7744ZM13.3667 23.7744C13.3667 36.2429 23.5 46.3506 36 46.3506C48.5 46.3506 58.6333 36.2429 58.6333 23.7744C58.6333 11.3059 48.5 1.19823 36 1.19823C23.5 1.19823 13.3667 11.3059 13.3667 23.7744Z" fill="url(#paint0_linear_2530_75)"/>
<path d="M60.9116 43.1311C51.8022 52.2828 37.0329 52.2828 27.9235 43.1311C18.8141 33.9793 18.8141 19.1413 27.9235 9.98955C37.0329 0.837774 51.8022 0.837774 60.9116 9.98955C70.021 19.1413 70.021 33.9793 60.9116 43.1311ZM28.4183 10.4867C19.5822 19.3639 19.5822 33.7567 28.4183 42.6339C37.2545 51.5112 51.5807 51.5112 60.4168 42.6339C69.2529 33.7567 69.2529 19.3639 60.4168 10.4867C51.5807 1.60945 37.2545 1.60945 28.4183 10.4867Z" fill="url(#paint1_linear_2530_75)"/>
<path d="M48.5 58.4349C35.5213 58.4349 25 47.9396 25 34.993C25 22.0464 35.5213 11.5512 48.5 11.5512C61.4787 11.5512 72 22.0464 72 34.993C72 47.9396 61.4787 58.4349 48.5 58.4349ZM48.5 12.2544C35.9107 12.2544 25.705 22.4348 25.705 34.993C25.705 47.5512 35.9107 57.7316 48.5 57.7316C61.0893 57.7316 71.295 47.5512 71.295 34.993C71.295 22.4348 61.0893 12.2544 48.5 12.2544Z" fill="url(#paint2_linear_2530_75)"/>
<path d="M28.8751 60.0205C19.7657 50.8687 19.7657 36.0308 28.8751 26.879C37.9846 17.7272 52.7538 17.7272 61.8632 26.879C70.9726 36.0308 70.9726 50.8687 61.8632 60.0205C52.7538 69.1723 37.9846 69.1723 28.8751 60.0205ZM61.3684 27.3761C52.5323 18.4989 38.2061 18.4989 29.37 27.3761C20.5338 36.2533 20.5338 50.6461 29.37 59.5234C38.2061 68.4006 52.5323 68.4006 61.3684 59.5234C70.2045 50.6461 70.2045 36.2533 61.3684 27.3761Z" fill="url(#paint3_linear_2530_75)"/>
<path d="M12.6667 48.8907C12.6667 35.8516 23.1134 25.2814 36 25.2814C48.8866 25.2814 59.3333 35.8516 59.3333 48.8907C59.3333 61.9298 48.8866 72.5 36 72.5C23.1133 72.5 12.6667 61.9298 12.6667 48.8907ZM58.6333 48.8907C58.6333 36.2428 48.5 25.9897 36 25.9897C23.5 25.9897 13.3667 36.2428 13.3667 48.8907C13.3667 61.5386 23.5 71.7917 36 71.7917C48.5 71.7917 58.6333 61.5386 58.6333 48.8907Z" fill="url(#paint4_linear_2530_75)"/>
<path d="M10.1607 27.835C19.2701 18.6832 34.0394 18.6832 43.1488 27.835C52.2582 36.9868 52.2582 51.8247 43.1488 60.9765C34.0394 70.1283 19.2701 70.1283 10.1607 60.9765C1.0513 51.8247 1.0513 36.9868 10.1607 27.835ZM42.654 60.4794C51.4901 51.6022 51.4901 37.2093 42.654 28.3321C33.8178 19.4549 19.4917 19.4549 10.6555 28.3321C1.8194 37.2093 1.8194 51.6022 10.6555 60.4794C19.4916 69.3566 33.8178 69.3566 42.654 60.4794Z" fill="url(#paint5_linear_2530_75)"/>
<path d="M23.5 11.5512C36.4787 11.5512 47 22.0464 47 34.993C47 47.9396 36.4787 58.4349 23.5 58.4349C10.5213 58.4349 -1.68988e-06 47.9396 0 34.993C1.68988e-06 22.0464 10.5213 11.5512 23.5 11.5512ZM23.5 57.7316C36.0893 57.7316 46.295 47.5512 46.295 34.993C46.295 22.4348 36.0893 12.2544 23.5 12.2544C10.9107 12.2544 0.705001 22.4348 0.704999 34.993C0.704998 47.5512 10.9107 57.7316 23.5 57.7316Z" fill="url(#paint6_linear_2530_75)"/>
<path d="M44.1004 9.03356C53.2098 18.1853 53.2098 33.0233 44.1003 42.1751C34.9909 51.3268 20.2217 51.3268 11.1123 42.1751C2.00287 33.0233 2.00288 18.1853 11.1123 9.03355C20.2217 -0.118222 34.991 -0.118219 44.1004 9.03356ZM11.6071 41.6779C20.4432 50.5552 34.7694 50.5552 43.6055 41.6779C52.4417 32.8007 52.4417 18.4079 43.6055 9.53068C34.7694 0.653453 20.4432 0.653453 11.6071 9.53067C2.77098 18.4079 2.77097 32.8007 11.6071 41.6779Z" fill="url(#paint7_linear_2530_75)"/>
<defs>
<linearGradient id="paint0_linear_2530_75" x1="36" y1="0.5" x2="36" y2="72.5" gradientUnits="userSpaceOnUse">
<stop stop-color="#9567B0"/>
<stop offset="1" stop-color="#DC8887"/>
</linearGradient>
<linearGradient id="paint1_linear_2530_75" x1="36" y1="0.5" x2="36" y2="72.5" gradientUnits="userSpaceOnUse">
<stop stop-color="#9567B0"/>
<stop offset="1" stop-color="#DC8887"/>
</linearGradient>
<linearGradient id="paint2_linear_2530_75" x1="36" y1="0.5" x2="36" y2="72.5" gradientUnits="userSpaceOnUse">
<stop stop-color="#9567B0"/>
<stop offset="1" stop-color="#DC8887"/>
</linearGradient>
<linearGradient id="paint3_linear_2530_75" x1="36" y1="0.5" x2="36" y2="72.5" gradientUnits="userSpaceOnUse">
<stop stop-color="#9567B0"/>
<stop offset="1" stop-color="#DC8887"/>
</linearGradient>
<linearGradient id="paint4_linear_2530_75" x1="36" y1="0.5" x2="36" y2="72.5" gradientUnits="userSpaceOnUse">
<stop stop-color="#9567B0"/>
<stop offset="1" stop-color="#DC8887"/>
</linearGradient>
<linearGradient id="paint5_linear_2530_75" x1="36" y1="0.5" x2="36" y2="72.5" gradientUnits="userSpaceOnUse">
<stop stop-color="#9567B0"/>
<stop offset="1" stop-color="#DC8887"/>
</linearGradient>
<linearGradient id="paint6_linear_2530_75" x1="36" y1="0.5" x2="36" y2="72.5" gradientUnits="userSpaceOnUse">
<stop stop-color="#9567B0"/>
<stop offset="1" stop-color="#DC8887"/>
</linearGradient>
<linearGradient id="paint7_linear_2530_75" x1="36" y1="0.5" x2="36" y2="72.5" gradientUnits="userSpaceOnUse">
<stop stop-color="#9567B0"/>
<stop offset="1" stop-color="#DC8887"/>
</linearGradient>
</defs>
</svg>
