<svg width="72" height="73" viewBox="0 0 72 73" fill="none" xmlns="http://www.w3.org/2000/svg">
<path d="M44.0469 33.1669L43.7316 32.8517C43.8495 33.1015 43.9546 33.3558 44.0469 33.6136V33.6127M44.0469 33.1669L27.9531 36.4843C27.9531 36.4895 27.9531 36.4948 27.9531 36.5M44.0469 33.1669V33.6127M44.0469 33.1669V33.6127M44.0469 33.6127C44.3705 34.5146 44.5469 35.4867 44.5469 36.5C44.5469 36.5199 44.5468 36.5398 44.5467 36.5597C44.54 37.5173 44.3734 38.4741 44.0469 39.3864M44.0469 33.6127C43.9536 33.3527 43.8481 33.0986 43.731 32.851L44.0469 33.6127ZM44.0469 39.3864V36.5056C44.0468 36.5183 44.0468 36.531 44.0467 36.5437C44.0411 37.6138 43.8265 38.6345 43.4417 39.5671C43.049 40.5211 42.4651 41.4149 41.69 42.19M44.0469 39.3864C43.9546 39.6443 43.8495 39.8986 43.7316 40.1483M44.0469 39.3864L43.7316 40.1483M41.69 42.19C40.917 42.963 40.0258 43.5459 39.0745 43.9386C38.14 44.3253 37.1167 44.541 36.0436 44.5467C36.0309 44.5468 36.0183 44.5468 36.0056 44.5469H38.8864C37.9551 44.8802 36.9776 45.0469 36 45.0469C35.0224 45.0469 34.0449 44.8802 33.1136 44.5469H35.9944C35.9817 44.5468 35.969 44.5468 35.9563 44.5467C34.8833 44.541 33.86 44.3253 32.9254 43.9386C31.9742 43.5459 31.083 42.963 30.31 42.19M41.69 42.19L39.649 44.231L43.731 40.149L41.69 42.19ZM30.31 42.19C28.7721 40.6521 27.9869 38.6467 27.9542 36.6313C27.9536 36.5928 27.9532 36.5543 27.9531 36.5157M30.31 42.19L28.269 40.149L32.7332 44.4003M30.31 42.19L32.351 44.231C32.4767 44.2904 32.6041 44.3469 32.7332 44.4003M27.9531 36.5157V36.5M27.9531 36.5157V39.3864M27.9531 36.5157C27.9531 36.5105 27.9531 36.5052 27.9531 36.5M27.9531 36.5V39.3864M27.9531 39.3864C27.6356 38.4994 27.4694 37.5705 27.4543 36.6395C27.4535 36.5931 27.4531 36.5466 27.4531 36.5C27.4531 36.4534 27.4535 36.4069 27.4543 36.3605L27.9531 39.3864ZM27.9531 33.6127C28.0464 33.3527 28.152 33.0986 28.269 32.851L28.2683 32.8517M27.9531 33.6127L36 27.9531H35.9946M27.9531 33.6127V33.1669M27.9531 33.6127V33.1669M28.2683 32.8517C28.6772 31.985 29.2399 31.173 29.9564 30.4565M28.2683 32.8517L27.9531 33.1669M28.2683 32.8517L27.9531 33.1669M29.9564 30.4565C30.6729 29.7399 31.485 29.1772 32.3516 28.7684M29.9564 30.4565L31.9597 28.4531H27.9531V32.4598L29.9564 30.4565ZM32.3516 28.7684L32.351 28.769C32.479 28.7085 32.6088 28.6511 32.7402 28.5968M32.3516 28.7684L32.6669 28.4531H33.1127M32.3516 28.7684C32.48 28.7078 32.6096 28.6506 32.7402 28.5968M32.7402 28.5968C32.8638 28.5459 32.9882 28.498 33.1136 28.4531H33.1127M32.7402 28.5968C32.8629 28.5461 32.9871 28.4982 33.1127 28.4531M33.1127 28.4531C34.0008 28.1344 34.957 27.9586 35.9536 27.9533C35.9673 27.9532 35.981 27.9531 35.9946 27.9531M35.9946 27.9531H33.1669L36 25.12L38.8331 27.9531H36.0053H35.9946ZM35.9689 28.4532C35.9792 28.4532 35.9896 28.4531 36 28.4531C38.2167 28.4531 40.224 29.3495 41.6794 30.7994L41.69 30.81L35.9689 28.4532ZM35.9689 28.4532C34.9352 28.4572 33.9022 28.6591 32.9316 29.0589M35.9689 28.4532L32.9316 29.0589M32.9316 29.0589C30.9534 29.8755 29.372 31.4579 28.5567 33.4368C28.1712 34.3746 27.9704 35.3704 27.9542 36.3687L32.9316 29.0589ZM32.7332 44.4003C32.6049 44.3473 32.4777 44.2911 32.3516 44.2316L32.6669 44.5469H33.1127C32.9847 44.5009 32.8582 44.4521 32.7332 44.4003ZM36 47.88L33.1669 45.0469L36 47.88ZM36 47.88L38.8331 45.0469L36 47.88ZM43.7316 40.1483L44.0469 39.8331L43.7316 40.1483ZM47.38 36.5L44.5469 39.3331V36.507L47.38 36.5ZM47.38 36.5L44.5469 33.6669V36.493L47.38 36.5ZM27.9531 8.81053C27.9531 7.61951 28.1806 6.54026 28.5823 5.5867L28.9806 4.87609C29.4599 4.02093 30.0367 3.30718 30.6811 2.72708C32.1576 1.46804 34.0707 0.77273 36 0.75094C37.9293 0.77273 39.8424 1.46805 41.3189 2.7271C41.9633 3.3072 42.5401 4.02094 43.0194 4.87609L43.4177 5.58668C43.8194 6.54025 44.0469 7.61951 44.0469 8.81053V11.2892L38.1814 12.9411C36.7549 13.3428 35.2451 13.3428 33.8186 12.9411L27.9531 11.2892V8.81053ZM44.5469 8.81053C44.5469 8.3295 44.5119 7.86563 44.4452 7.41975L46.264 10.6648L44.5469 11.1484V8.81053ZM44.5469 11.6678L46.5155 11.1134L47.5155 12.8974L44.5469 15.866V11.6678ZM47.8828 12.5301L47.0105 10.974L50.5912 9.96554C50.2287 10.2336 49.876 10.5369 49.5359 10.877L47.8828 12.5301ZM44.5469 16.5731L47.7694 13.3506L50.68 18.5433C51.4497 19.9164 52.5836 21.0503 53.9567 21.82L59.1494 24.7306L55.9268 27.9531H44.5469V16.5731ZM59.5167 24.3633L54.2011 21.3838C52.9084 20.6592 51.8408 19.5916 51.1162 18.2988L48.1367 12.9833L49.8894 11.2306C50.7316 10.3884 51.6556 9.78617 52.6138 9.3959L53.398 9.17505C54.3416 8.9093 55.2541 8.81243 56.12 8.8579C58.0546 9.01169 59.8994 9.87309 61.2791 11.2223C62.6272 12.6016 63.488 14.4452 63.642 16.3787C63.6877 17.2449 63.5908 18.1579 63.3249 19.102L63.104 19.8864C62.7138 20.8446 62.1115 21.7685 61.2694 22.6106L59.5167 24.3633ZM56.634 27.9531L59.6026 24.9845L61.3866 25.9845L60.8322 27.9531L56.634 27.9531ZM61.526 25.4895L59.9699 24.6172L61.623 22.9641C61.9631 22.624 62.2664 22.2713 62.5344 21.9089L61.526 25.4895ZM61.3516 27.9531L61.8352 26.236L65.0803 28.0548C64.6344 27.9881 64.1705 27.9531 63.6895 27.9531H61.3516ZM69.7727 41.8191C69.1926 42.4635 68.479 43.0402 67.6239 43.5194L66.9134 43.9177C65.9598 44.3193 64.8805 44.5469 63.6895 44.5469H61.2108L59.5589 38.6814C59.1571 37.2549 59.1571 35.7451 59.5589 34.3186L61.2108 28.4531H63.6895C64.8805 28.4531 65.9598 28.6807 66.9134 29.0823L67.6239 29.4806C68.479 29.9599 69.1927 30.5366 69.7728 31.181C71.0319 32.6574 71.7272 34.5705 71.7491 36.4997C71.7273 38.4292 71.0319 40.3426 69.7727 41.8191ZM56.134 28.4531L60.6913 28.4531L59.0776 34.1831C58.6509 35.6982 58.6509 37.3018 59.0776 38.8169L60.6913 44.5469H56.1339L48.0871 36.5L56.134 28.4531ZM56.6339 45.0469H60.8322L61.3866 47.0155L59.6025 48.0155L56.6339 45.0469ZM65.0803 44.9452L61.8352 46.764L61.3516 45.0469H63.6895C64.1705 45.0469 64.6344 45.0119 65.0803 44.9452ZM59.9698 48.3828L61.526 47.5105L62.5345 51.0912C62.2664 50.7287 61.9631 50.376 61.6229 50.0359L59.9698 48.3828ZM56.1194 64.1421C55.2537 64.1875 54.3414 64.0907 53.398 63.825L52.614 63.6042C51.6557 63.2139 50.7316 62.6116 49.8894 61.7694L48.1367 60.0167L51.1162 54.7012C51.8408 53.4084 52.9084 52.3408 54.2011 51.6162L59.5167 48.6368L61.2694 50.3894C62.1116 51.2316 62.7138 52.1556 63.1041 53.1139L63.3249 53.898C63.5907 54.8417 63.6876 55.7543 63.6421 56.6202C63.4883 58.5542 62.6273 60.3984 61.2788 61.778C59.899 63.1272 58.0541 63.9885 56.1194 64.1421ZM55.9268 45.0469L59.1494 48.2695L53.9567 51.18C52.5836 51.9497 51.4497 53.0836 50.68 54.4567L47.7694 59.6494L44.5469 56.4269L44.5469 45.0469H55.9268ZM44.5469 57.134L47.5155 60.1026L46.5155 61.8866L44.5469 61.3322V57.134ZM50.5912 63.0345L47.0105 62.026L47.8828 60.4699L49.5358 62.1229C49.876 62.4631 50.2287 62.7664 50.5912 63.0345ZM44.5469 61.8516L46.264 62.3353L44.4452 65.5803C44.5119 65.1344 44.5469 64.6705 44.5469 64.1895V61.8516ZM30.6811 70.2729C30.0367 69.6928 29.4599 68.9791 28.9806 68.1239L28.5823 67.4133C28.1806 66.4597 27.9531 65.3805 27.9531 64.1895V61.7108L33.8186 60.0589C35.2451 59.6572 36.7549 59.6572 38.1814 60.0589L44.0469 61.7108V64.1895C44.0469 65.3805 43.8194 66.4598 43.4177 67.4133L43.0194 68.1239C42.5401 68.979 41.9634 69.6928 41.3189 70.2729C39.8424 71.5319 37.9293 72.2273 36 72.2491C34.0707 72.2273 32.1576 71.532 30.6811 70.2729ZM44.0469 56.634V61.1914L38.3169 59.5776C36.8018 59.1509 35.1982 59.1509 33.683 59.5776L27.9531 61.1914V56.6339L36 48.5871L44.0469 56.634ZM27.4531 57.1339V61.3322L25.4845 61.8866L24.4845 60.1025L27.4531 57.1339ZM27.5548 65.5802L25.736 62.3352L27.4531 61.8516V64.1895C27.4531 64.6705 27.4881 65.1344 27.5548 65.5802ZM24.1172 60.4698L24.9895 62.026L21.4088 63.0345C21.7713 62.7664 22.124 62.4631 22.4641 62.123L24.1172 60.4698ZM8.35788 56.6199C8.31241 55.7541 8.40928 54.8416 8.67502 53.898L8.89585 53.1139C9.28611 52.1556 9.8884 51.2316 10.7306 50.3894L12.4833 48.6367L17.7988 51.6162C19.0916 52.3408 20.1592 53.4084 20.8838 54.7011L23.8632 60.0167L22.1106 61.7694C21.2684 62.6116 20.3443 63.2139 19.3861 63.6041L18.602 63.825C17.6584 64.0907 16.7459 64.1876 15.8801 64.1421C13.9457 63.9884 12.1012 63.1272 10.7216 61.7784C9.37274 60.3988 8.51162 58.5543 8.35788 56.6199ZM27.4531 56.4268L24.2305 59.6494L21.32 54.4567C20.5503 53.0836 19.4164 51.9497 18.0433 51.18L12.8506 48.2694L16.0731 45.0469H27.4531L27.4531 56.4268ZM15.366 45.0469L12.3974 48.0155L10.6134 47.0155L11.1678 45.0469H15.366ZM9.46551 51.0912L10.474 47.5105L12.0301 48.3828L10.377 50.0359C10.0369 50.376 9.73359 50.7287 9.46551 51.0912ZM10.6483 45.0469L10.1647 46.764L6.91974 44.9452C7.36563 45.0119 7.8295 45.0469 8.31053 45.0469H10.6483ZM2.22729 31.1809C2.80735 30.5365 3.52103 29.9598 4.37609 29.4806L5.08663 29.0823C6.04021 28.6807 7.11949 28.4531 8.31053 28.4531H10.7892L12.4411 34.3186C12.8428 35.7451 12.8428 37.2549 12.4411 38.6814L10.7892 44.5469H8.31053C7.1195 44.5469 6.04023 44.3193 5.08666 43.9177L4.3761 43.5194C3.52094 43.0401 2.8072 42.4633 2.2271 41.8189C0.968098 40.3425 0.272785 38.4294 0.250943 36.5002C0.272683 34.5708 0.968072 32.6574 2.22729 31.1809ZM15.866 44.5469H11.3086L12.9223 38.8169C13.3491 37.3018 13.3491 35.6982 12.9223 34.1831L11.3086 28.4531H15.8661L23.9129 36.5L15.866 44.5469ZM15.3661 27.9531H11.1678L10.6134 25.9845L12.3974 24.9845L15.3661 27.9531ZM6.91973 28.0548L10.1647 26.236L10.6483 27.9531H8.31053C7.8295 27.9531 7.36563 27.9881 6.91973 28.0548ZM12.0301 24.6172L10.474 25.4895L9.46549 21.9087C9.73359 22.2712 10.0369 22.624 10.3771 22.9641L12.0301 24.6172ZM15.8801 8.8579C16.7459 8.81244 17.6584 8.9093 18.602 9.17505L19.386 9.39584C20.3443 9.7861 21.2684 10.3884 22.1106 11.2306L23.8632 12.9833L20.8838 18.2988C20.1592 19.5916 19.0916 20.6592 17.7988 21.3838L12.4833 24.3632L10.7306 22.6106C9.88836 21.7683 9.28605 20.8442 8.89579 19.8859L8.67503 19.102C8.40938 18.1588 8.31248 17.2466 8.35784 16.381C8.5114 14.4461 9.37277 12.601 10.7221 11.2211C12.1017 9.87255 13.946 9.01162 15.8801 8.8579ZM16.0732 27.9531L12.8506 24.7306L18.0433 21.82C19.4164 21.0503 20.5503 19.9164 21.32 18.5433L24.2305 13.3506L27.4531 16.5732V27.9531L16.0732 27.9531ZM27.4531 15.8661L24.4845 12.8975L25.4845 11.1134L27.4531 11.6678V15.8661ZM21.4087 9.96552L24.9895 10.974L24.1172 12.5302L22.4641 10.8771C22.124 10.5369 21.7713 10.2336 21.4087 9.96552ZM25.736 10.6648L27.5548 7.41975C27.4881 7.86564 27.4531 8.3295 27.4531 8.81053V11.1484L25.736 10.6648ZM27.9531 16.3661V11.8086L33.6831 13.4224C35.1982 13.8491 36.8018 13.8491 38.317 13.4224L44.0469 11.8086V16.366L36 24.4129L27.9531 16.3661ZM36.3535 24.7665L44.0469 17.0731V27.9531L39.5402 27.9531L36.3535 24.7665ZM40.0402 28.4531L44.0469 28.4531V32.4598L42.0546 30.4675C42.0472 30.4601 42.0399 30.4528 42.0325 30.4454L40.0402 28.4531ZM38.8864 28.4531C38.8516 28.4402 38.9223 28.4657 38.8873 28.4531H39.3331L39.6483 28.7684L39.649 28.769C39.4347 28.6677 39.11 28.5367 38.8864 28.4531ZM32.4598 27.9531H27.9531V17.0732L35.6464 24.7665L32.4598 27.9531ZM27.4531 33.6669V36.4833C27.4531 36.4944 27.4531 36.5056 27.4531 36.5167V39.3331L24.62 36.5L27.4531 33.6669ZM27.4531 28.4531V32.9598L24.2665 36.1464L16.5732 28.4531L27.4531 28.4531ZM16.5731 44.5469L24.2665 36.8535L27.4531 40.0402V44.5469H16.5731ZM27.9531 44.5469V40.5402L29.9564 42.5435L31.9598 44.5469H27.9531ZM28.2683 40.1483L27.9531 39.8331V39.3873C27.9974 39.5107 28.0445 39.6328 28.0942 39.7535C28.1488 39.8863 28.2068 40.0179 28.2683 40.1483ZM27.9531 45.0469H32.4598L35.6464 48.2335L27.9531 55.9268L27.9531 45.0469ZM44.0469 55.9269L36.3535 48.2335L39.5402 45.0469H44.0469L44.0469 55.9269ZM44.0469 44.5469H40.0402L42.0436 42.5435L44.0469 40.5402V44.5469ZM39.6483 44.2316L39.3331 44.5469H38.8873C39.0154 44.5009 39.142 44.452 39.2671 44.4002C39.3953 44.3473 39.5224 44.2911 39.6483 44.2316ZM44.5469 44.5469V40.0402L47.7335 36.8536L55.4268 44.5469H44.5469ZM47.7335 36.1465L44.5469 32.9598V28.4531H55.4268L47.7335 36.1465Z" stroke="url(#paint0_linear_2530_865)" stroke-width="0.5"/>
<defs>
<linearGradient id="paint0_linear_2530_865" x1="36" y1="0.5" x2="36" y2="72.5" gradientUnits="userSpaceOnUse">
<stop stop-color="#9567B0"/>
<stop offset="1" stop-color="#DC8887"/>
</linearGradient>
</defs>
</svg>
