<svg width="74" height="73" viewBox="0 0 74 73" fill="none" xmlns="http://www.w3.org/2000/svg">
<path d="M1 0.5H73V72.5M1 0.5V72.5H73M1 0.5H22.6V22.1H1V0.5ZM1 0.5H15.4V14.9H1V0.5ZM1 0.5H8.2V7.7H1V0.5ZM1 0.5H29.8V29.3H1V0.5ZM1 0.5H37V36.5H1V0.5ZM1 0.5H44.2V43.7H1V0.5ZM1 0.5H51.4V50.9H1V0.5ZM1 0.5H58.6V58.1H1V0.5ZM1 0.5H65.8V65.3H1V0.5ZM73 72.5L7.51429 7.01429" stroke="url(#paint0_linear_2530_188)"/>
<defs>
<linearGradient id="paint0_linear_2530_188" x1="37" y1="0.5" x2="37" y2="72.5" gradientUnits="userSpaceOnUse">
<stop stop-color="#9567B0"/>
<stop offset="1" stop-color="#DC8887"/>
</linearGradient>
</defs>
</svg>
