<svg width="72" height="72" viewBox="0 0 72 72" fill="none" xmlns="http://www.w3.org/2000/svg">
<path d="M41.2677 36.2998C41.5556 36.5089 41.9593 36.4456 42.1604 36.152C43.7509 33.8293 44.9045 31.2338 45.5625 28.493C46.2707 25.5432 46.3909 22.4829 45.9163 19.4866C45.4418 16.4904 44.3817 13.6169 42.7966 11.0304C41.2116 8.44382 39.1326 6.19479 36.6783 4.4117C34.2241 2.62861 31.4427 1.34639 28.4929 0.638228C25.5431 -0.0699304 22.4827 -0.190149 19.4865 0.284435C16.4903 0.759019 13.6168 1.81911 11.0303 3.40419C8.62696 4.87697 6.51505 6.77619 4.79755 9.00663C4.58046 9.28855 4.645 9.69207 4.93287 9.90122C5.22074 10.1104 5.62289 10.0459 5.84045 9.76433C7.45817 7.67061 9.44453 5.88721 11.7036 4.50285C14.1458 3.00619 16.859 2.00523 19.6881 1.55712C22.5172 1.10901 25.4069 1.22252 28.1921 1.89118C30.9773 2.55983 33.6036 3.77054 35.9209 5.45417C38.2383 7.13779 40.2013 9.26137 41.698 11.7037C43.1946 14.1459 44.1956 16.8591 44.6437 19.6882C45.0917 22.5173 44.9782 25.407 44.3095 28.1922C43.691 30.7685 42.6088 33.2087 41.1175 35.3943C40.9169 35.6882 40.9799 36.0906 41.2677 36.2998Z" fill="url(#paint0_linear_2530_76)"/>
<path d="M30.7323 35.7003C30.4444 35.4911 30.0407 35.5544 29.8396 35.848C28.2491 38.1707 27.0955 40.7662 26.4375 43.507C25.7293 46.4568 25.6091 49.5171 26.0837 52.5134C26.5582 55.5096 27.6183 58.3831 29.2034 60.9696C30.7884 63.5562 32.8674 65.8052 35.3217 67.5883C37.7759 69.3714 40.5573 70.6536 43.5071 71.3618C46.4569 72.0699 49.5173 72.1902 52.5135 71.7156C55.5098 71.241 58.3832 70.1809 60.9697 68.5958C63.373 67.123 65.4849 65.2238 67.2024 62.9934C67.4195 62.7114 67.355 62.3079 67.0671 62.0988C66.7793 61.8896 66.3771 61.9541 66.1596 62.2357C64.5418 64.3294 62.5555 66.1128 60.2964 67.4972C57.8542 68.9938 55.141 69.9948 52.3119 70.4429C49.4828 70.891 46.5931 70.7775 43.8079 70.1088C41.0227 69.4402 38.3964 68.2295 36.0791 66.5458C33.7617 64.8622 31.7987 62.7386 30.302 60.2964C28.8054 57.8541 27.8044 55.1409 27.3563 52.3118C26.9083 49.4827 27.0218 46.593 27.6905 43.8078C28.309 41.2315 29.3912 38.7913 30.8825 36.6057C31.0831 36.3118 31.0201 35.9094 30.7323 35.7003Z" fill="url(#paint1_linear_2530_76)"/>
<path d="M35.7003 41.2677C35.4911 41.5556 35.5544 41.9593 35.848 42.1604C38.1707 43.7509 40.7662 44.9045 43.507 45.5625C46.4568 46.2707 49.5171 46.3909 52.5134 45.9163C55.5096 45.4418 58.3831 44.3817 60.9696 42.7966C63.5562 41.2116 65.8052 39.1326 67.5883 36.6783C69.3714 34.2241 70.6536 31.4427 71.3618 28.4929C72.0699 25.5431 72.1901 22.4827 71.7156 19.4865C71.241 16.4902 70.1809 13.6168 68.5958 11.0303C67.123 8.62695 65.2238 6.51504 62.9934 4.79754C62.7114 4.58045 62.3079 4.64498 62.0988 4.93285C61.8896 5.22072 61.9541 5.62288 62.2357 5.84043C64.3294 7.45816 66.1128 9.44451 67.4971 11.7035C68.9938 14.1458 69.9948 16.859 70.4429 19.6881C70.891 22.5172 70.7775 25.4069 70.1088 28.1921C69.4402 30.9773 68.2295 33.6036 66.5458 35.9209C64.8622 38.2383 62.7386 40.2013 60.2963 41.698C57.8541 43.1946 55.1409 44.1956 52.3118 44.6437C49.4827 45.0918 46.593 44.9782 43.8078 44.3095C41.2315 43.691 38.7913 42.6088 36.6057 41.1175C36.3118 40.9169 35.9094 40.9799 35.7003 41.2677Z" fill="url(#paint2_linear_2530_76)"/>
<path d="M36.2997 30.7323C36.5089 30.4444 36.4456 30.0407 36.152 29.8396C33.8293 28.2491 31.2338 27.0955 28.493 26.4375C25.5432 25.7293 22.4829 25.6091 19.4866 26.0837C16.4904 26.5582 13.6169 27.6183 11.0304 29.2034C8.44382 30.7884 6.19479 32.8674 4.4117 35.3217C2.62862 37.7759 1.34639 40.5573 0.638228 43.5071C-0.06993 46.4569 -0.190149 49.5173 0.284434 52.5135C0.759018 55.5098 1.81911 58.3832 3.40418 60.9697C4.87697 63.3731 6.77619 65.485 9.00662 67.2025C9.28855 67.4195 9.69207 67.355 9.90121 67.0671C10.1104 66.7793 10.0459 66.3771 9.76432 66.1596C7.6706 64.5418 5.88721 62.5555 4.50285 60.2965C3.00619 57.8542 2.00523 55.141 1.55712 52.3119C1.10901 49.4828 1.22252 46.5931 1.89118 43.8079C2.55983 41.0227 3.77054 38.3964 5.45417 36.0791C7.13779 33.7617 9.26137 31.7987 11.7036 30.302C14.1459 28.8054 16.8591 27.8044 19.6882 27.3563C22.5173 26.9083 25.407 27.0218 28.1922 27.6905C30.7685 28.309 33.2087 29.3912 35.3943 30.8825C35.6882 31.0831 36.0906 31.0201 36.2997 30.7323Z" fill="url(#paint3_linear_2530_76)"/>
<path d="M30.7323 36.2998C30.4444 36.5089 30.0407 36.4456 29.8396 36.152C28.2491 33.8293 27.0955 31.2338 26.4375 28.493C25.7293 25.5432 25.6091 22.4829 26.0837 19.4866C26.5582 16.4904 27.6183 13.6169 29.2034 11.0304C30.7884 8.44382 32.8674 6.19479 35.3217 4.4117C37.7759 2.62861 40.5573 1.34639 43.5071 0.638228C46.4569 -0.0699304 49.5173 -0.190149 52.5135 0.284435C55.5098 0.759019 58.3832 1.81911 60.9697 3.40419C63.373 4.87697 65.4849 6.77619 67.2024 9.00663C67.4195 9.28855 67.355 9.69207 67.0671 9.90122C66.7793 10.1104 66.3771 10.0459 66.1596 9.76433C64.5418 7.67061 62.5555 5.88721 60.2964 4.50285C57.8542 3.00619 55.141 2.00523 52.3119 1.55712C49.4828 1.10901 46.5931 1.22252 43.8079 1.89118C41.0227 2.55983 38.3964 3.77054 36.0791 5.45417C33.7617 7.13779 31.7987 9.26137 30.302 11.7037C28.8054 14.1459 27.8044 16.8591 27.3563 19.6882C26.9083 22.5173 27.0218 25.407 27.6905 28.1922C28.309 30.7685 29.3912 33.2087 30.8825 35.3943C31.0831 35.6882 31.0201 36.0906 30.7323 36.2998Z" fill="url(#paint4_linear_2530_76)"/>
<path d="M41.2677 35.7003C41.5556 35.4911 41.9593 35.5544 42.1604 35.848C43.7509 38.1707 44.9045 40.7662 45.5625 43.507C46.2707 46.4568 46.3909 49.5171 45.9163 52.5134C45.4418 55.5096 44.3817 58.3831 42.7966 60.9696C41.2116 63.5562 39.1326 65.8052 36.6783 67.5883C34.2241 69.3714 31.4427 70.6536 28.4929 71.3618C25.5431 72.0699 22.4827 72.1902 19.4865 71.7156C16.4903 71.241 13.6168 70.1809 11.0303 68.5958C8.62696 67.123 6.51506 65.2238 4.79756 62.9934C4.58047 62.7114 4.645 62.3079 4.93287 62.0988C5.22074 61.8896 5.62289 61.9541 5.84045 62.2357C7.45817 64.3294 9.44453 66.1128 11.7036 67.4972C14.1458 68.9938 16.859 69.9948 19.6881 70.4429C22.5172 70.891 25.4069 70.7775 28.1921 70.1088C30.9773 69.4402 33.6036 68.2295 35.9209 66.5458C38.2383 64.8622 40.2013 62.7386 41.698 60.2964C43.1946 57.8541 44.1956 55.1409 44.6437 52.3118C45.0917 49.4827 44.9782 46.593 44.3095 43.8078C43.691 41.2315 42.6088 38.7913 41.1175 36.6057C40.9169 36.3118 40.9799 35.9094 41.2677 35.7003Z" fill="url(#paint5_linear_2530_76)"/>
<path d="M36.2997 41.2677C36.5089 41.5556 36.4456 41.9593 36.152 42.1604C33.8293 43.7509 31.2338 44.9045 28.493 45.5625C25.5433 46.2707 22.4829 46.3909 19.4866 45.9163C16.4904 45.4418 13.617 44.3817 11.0304 42.7966C8.44384 41.2116 6.19481 39.1326 4.41172 36.6783C2.62863 34.2241 1.3464 31.4427 0.638246 28.4929C-0.0699121 25.5431 -0.190131 22.4827 0.284453 19.4865C0.759037 16.4902 1.81913 13.6168 3.4042 11.0303C4.87699 8.62695 6.77621 6.51504 9.00664 4.79754C9.28857 4.58045 9.69209 4.64498 9.90123 4.93285C10.1104 5.22072 10.0459 5.62288 9.76434 5.84043C7.67062 7.45816 5.88723 9.44451 4.50287 11.7035C3.00621 14.1458 2.00525 16.859 1.55714 19.6881C1.10902 22.5172 1.22254 25.4069 1.89119 28.1921C2.55985 30.9773 3.77056 33.6036 5.45418 35.9209C7.13781 38.2383 9.26139 40.2013 11.7037 41.698C14.1459 43.1946 16.8591 44.1956 19.6882 44.6437C22.5173 45.0918 25.407 44.9782 28.1922 44.3095C30.7685 43.691 33.2087 42.6088 35.3943 41.1175C35.6882 40.9169 36.0906 40.9799 36.2997 41.2677Z" fill="url(#paint6_linear_2530_76)"/>
<path d="M35.7003 30.7323C35.4911 30.4444 35.5544 30.0407 35.848 29.8396C38.1707 28.2491 40.7662 27.0955 43.507 26.4375C46.4567 25.7293 49.5171 25.6091 52.5134 26.0837C55.5096 26.5582 58.383 27.6183 60.9696 29.2034C63.5562 30.7884 65.8052 32.8674 67.5883 35.3217C69.3714 37.7759 70.6536 40.5573 71.3618 43.5071C72.0699 46.4569 72.1901 49.5173 71.7156 52.5135C71.241 55.5098 70.1809 58.3832 68.5958 60.9697C67.123 63.3731 65.2238 65.485 62.9934 67.2025C62.7114 67.4195 62.3079 67.355 62.0988 67.0671C61.8896 66.7793 61.9541 66.3771 62.2357 66.1596C64.3294 64.5418 66.1128 62.5555 67.4971 60.2965C68.9938 57.8542 69.9948 55.141 70.4429 52.3119C70.891 49.4828 70.7775 46.5931 70.1088 43.8079C69.4402 41.0227 68.2295 38.3964 66.5458 36.0791C64.8622 33.7617 62.7386 31.7987 60.2963 30.302C57.8541 28.8054 55.1409 27.8044 52.3118 27.3563C49.4827 26.9083 46.593 27.0218 43.8078 27.6905C41.2315 28.309 38.7913 29.3912 36.6057 30.8825C36.3118 31.0831 35.9094 31.0201 35.7003 30.7323Z" fill="url(#paint7_linear_2530_76)"/>
<defs>
<linearGradient id="paint0_linear_2530_76" x1="36" y1="0" x2="36" y2="72" gradientUnits="userSpaceOnUse">
<stop stop-color="#9567B0"/>
<stop offset="1" stop-color="#DC8887"/>
</linearGradient>
<linearGradient id="paint1_linear_2530_76" x1="36" y1="0" x2="36" y2="72" gradientUnits="userSpaceOnUse">
<stop stop-color="#9567B0"/>
<stop offset="1" stop-color="#DC8887"/>
</linearGradient>
<linearGradient id="paint2_linear_2530_76" x1="36" y1="0" x2="36" y2="72" gradientUnits="userSpaceOnUse">
<stop stop-color="#9567B0"/>
<stop offset="1" stop-color="#DC8887"/>
</linearGradient>
<linearGradient id="paint3_linear_2530_76" x1="36" y1="0" x2="36" y2="72" gradientUnits="userSpaceOnUse">
<stop stop-color="#9567B0"/>
<stop offset="1" stop-color="#DC8887"/>
</linearGradient>
<linearGradient id="paint4_linear_2530_76" x1="36" y1="0" x2="36" y2="72" gradientUnits="userSpaceOnUse">
<stop stop-color="#9567B0"/>
<stop offset="1" stop-color="#DC8887"/>
</linearGradient>
<linearGradient id="paint5_linear_2530_76" x1="36" y1="0" x2="36" y2="72" gradientUnits="userSpaceOnUse">
<stop stop-color="#9567B0"/>
<stop offset="1" stop-color="#DC8887"/>
</linearGradient>
<linearGradient id="paint6_linear_2530_76" x1="36" y1="0" x2="36" y2="72" gradientUnits="userSpaceOnUse">
<stop stop-color="#9567B0"/>
<stop offset="1" stop-color="#DC8887"/>
</linearGradient>
<linearGradient id="paint7_linear_2530_76" x1="36" y1="0" x2="36" y2="72" gradientUnits="userSpaceOnUse">
<stop stop-color="#9567B0"/>
<stop offset="1" stop-color="#DC8887"/>
</linearGradient>
</defs>
</svg>
