<svg width="30" height="30" viewBox="0 0 30 30" fill="none" xmlns="http://www.w3.org/2000/svg">
<rect width="30" height="30" rx="15" fill="#4B4B4B"/>
<path d="M23.7609 6.09562C23.8344 6.14697 23.8946 6.21642 23.9363 6.29784C23.978 6.37926 23.9999 6.47016 24 6.5625V15C24 15.1123 23.9678 15.2221 23.9075 15.3151C23.8472 15.4082 23.7617 15.4802 23.6618 15.522L23.6586 15.5231L23.6522 15.5265L23.6274 15.5366C23.4858 15.5955 23.3433 15.6518 23.1998 15.7054C22.9155 15.8123 22.5203 15.9563 22.0723 16.0991C21.1935 16.3826 20.0488 16.6875 19.1538 16.6875C18.2417 16.6875 17.4868 16.3725 16.8298 16.0969L16.7997 16.0856C16.1169 15.7987 15.5354 15.5625 14.8462 15.5625C14.0923 15.5625 13.0822 15.8212 12.2217 16.0991C11.8365 16.2248 11.4548 16.3617 11.0769 16.5098V23.4375C11.0769 23.5867 11.0202 23.7298 10.9192 23.8352C10.8182 23.9407 10.6813 24 10.5385 24C10.3957 24 10.2587 23.9407 10.1577 23.8352C10.0567 23.7298 10 23.5867 10 23.4375V6.5625C10 6.41332 10.0567 6.27024 10.1577 6.16475C10.2587 6.05926 10.3957 6 10.5385 6C10.6813 6 10.8182 6.05926 10.9192 6.16475C11.0202 6.27024 11.0769 6.41332 11.0769 6.5625V6.87975C11.3203 6.79088 11.6111 6.6885 11.9277 6.58725C12.8065 6.306 13.9523 6 14.8462 6C15.7508 6 16.4874 6.31163 17.1303 6.58388L17.1766 6.60413C17.8465 6.8865 18.4302 7.125 19.1538 7.125C19.9077 7.125 20.9178 6.86625 21.7783 6.58837C22.2685 6.42803 22.7531 6.24942 23.2311 6.05287L23.2515 6.045L23.2558 6.04275H23.2569M22.9231 7.37362C22.6862 7.46137 22.4062 7.5615 22.0982 7.6605C21.2258 7.944 20.0822 8.24887 19.1538 8.24887C18.1997 8.24887 17.4394 7.92712 16.7814 7.64813L16.7728 7.64475C16.0975 7.36125 15.5343 7.125 14.8462 7.125C14.1257 7.125 13.1166 7.38263 12.2454 7.66275C11.8524 7.78925 11.4627 7.92693 11.0769 8.07562V15.3127C11.3138 15.225 11.5938 15.1249 11.9018 15.0259C12.7742 14.7413 13.9178 14.4375 14.8462 14.4375C15.7583 14.4375 16.5132 14.7525 17.1702 15.0281L17.2003 15.0394C17.8831 15.3263 18.4646 15.5625 19.1538 15.5625C19.8732 15.5625 20.8834 15.3049 21.7546 15.0248C22.1476 14.8982 22.5373 14.7606 22.9231 14.6119V7.37475V7.37362Z" fill="white"/>
</svg>
