<svg width="24" height="24" viewBox="0 0 24 24" fill="none" xmlns="http://www.w3.org/2000/svg">
<path d="M20.2649 9.53284H14.4655V3.73492C14.4654 3.61958 14.4196 3.50898 14.3381 3.4274C14.2565 3.34582 14.146 3.29993 14.0306 3.2998H9.96863C9.85327 3.29987 9.74266 3.34574 9.66111 3.42733C9.57956 3.50893 9.53375 3.61957 9.53375 3.73492L9.53351 9.53332L3.73535 9.53308C3.50471 9.53308 3.30047 9.73732 3.30023 9.9682V14.0302C3.30017 14.0874 3.31138 14.1439 3.33323 14.1968C3.35508 14.2496 3.38713 14.2975 3.42755 14.3379C3.46797 14.3783 3.51596 14.4104 3.56878 14.4322C3.6216 14.454 3.6782 14.4652 3.73535 14.4651H9.53375V20.2647C9.53382 20.3801 9.57968 20.4907 9.66127 20.5723C9.74285 20.6539 9.85349 20.6997 9.96887 20.6998H14.0304C14.0875 20.6998 14.1441 20.6885 14.1969 20.6667C14.2497 20.6448 14.2977 20.6128 14.3381 20.5724C14.3785 20.532 14.4105 20.484 14.4324 20.4312C14.4543 20.3784 14.4655 20.3218 14.4655 20.2647V14.4653L20.2646 14.4651C20.3218 14.4652 20.3784 14.454 20.4313 14.4322C20.4841 14.4103 20.5321 14.3783 20.5725 14.3379C20.6129 14.2974 20.645 14.2494 20.6668 14.1966C20.6887 14.1438 20.6998 14.0871 20.6998 14.03L20.7 9.96796C20.7 9.85256 20.6542 9.74189 20.5725 9.66029C20.4909 9.57869 20.3803 9.53284 20.2649 9.53284Z" fill="#8B57C2"/>
</svg>
