<svg width="24" height="24" viewBox="0 0 24 24" fill="none" xmlns="http://www.w3.org/2000/svg">
<path d="M6.93994 4.99905C6.93968 5.52948 6.72871 6.03808 6.35345 6.41297C5.97819 6.78785 5.46937 6.99831 4.93894 6.99805C4.40851 6.99778 3.89991 6.78681 3.52502 6.41155C3.15014 6.03629 2.93968 5.52748 2.93994 4.99705C2.94021 4.46661 3.15117 3.95801 3.52644 3.58313C3.9017 3.20824 4.41051 2.99778 4.94094 2.99805C5.47137 2.99831 5.97998 3.20928 6.35486 3.58454C6.72975 3.9598 6.94021 4.46861 6.93994 4.99905ZM6.99994 8.47905H2.99994V20.999H6.99994V8.47905ZM13.3199 8.47905H9.33994V20.999H13.2799V14.429C13.2799 10.769 18.0499 10.429 18.0499 14.429V20.999H21.9999V13.069C21.9999 6.89905 14.9399 7.12905 13.2799 10.159L13.3199 8.47905Z" fill="white"/>
</svg>
