<svg width="30" height="30" viewBox="0 0 30 30" fill="none" xmlns="http://www.w3.org/2000/svg">
<rect width="30" height="30" rx="15" fill="#4B4B4B"/>
<path d="M10.5 7C10.6326 7 10.7598 7.05268 10.8536 7.14645C10.9473 7.24021 11 7.36739 11 7.5V8H19V7.5C19 7.36739 19.0527 7.24021 19.1464 7.14645C19.2402 7.05268 19.3674 7 19.5 7C19.6326 7 19.7598 7.05268 19.8536 7.14645C19.9473 7.24021 20 7.36739 20 7.5V8H21C21.5304 8 22.0391 8.21071 22.4142 8.58579C22.7893 8.96086 23 9.46957 23 10V21C23 21.5304 22.7893 22.0391 22.4142 22.4142C22.0391 22.7893 21.5304 23 21 23H9C8.46957 23 7.96086 22.7893 7.58579 22.4142C7.21071 22.0391 7 21.5304 7 21V10C7 9.46957 7.21071 8.96086 7.58579 8.58579C7.96086 8.21071 8.46957 8 9 8H10V7.5C10 7.36739 10.0527 7.24021 10.1464 7.14645C10.2402 7.05268 10.3674 7 10.5 7ZM8 11V21C8 21.2652 8.10536 21.5196 8.29289 21.7071C8.48043 21.8946 8.73478 22 9 22H21C21.2652 22 21.5196 21.8946 21.7071 21.7071C21.8946 21.5196 22 21.2652 22 21V11H8Z" fill="white"/>
</svg>
