<svg width="20" height="20" viewBox="0 0 20 20" fill="none" xmlns="http://www.w3.org/2000/svg">
<path d="M18.7501 9.99996C18.7521 10.2563 18.6741 10.5069 18.5271 10.7169C18.3801 10.927 18.1713 11.086 17.9298 11.1718L12.9735 12.9742L11.172 17.9296C11.0832 18.1689 10.9233 18.3752 10.7138 18.5209C10.5043 18.6666 10.2552 18.7447 10.0001 18.7447C9.74491 18.7447 9.49585 18.6666 9.28636 18.5209C9.07688 18.3752 8.917 18.1689 8.8282 17.9296L7.02664 12.9734L2.07039 11.1718C1.83117 11.083 1.62485 10.9232 1.47916 10.7137C1.33346 10.5042 1.25537 10.2551 1.25537 9.99996C1.25537 9.74479 1.33346 9.49573 1.47916 9.28624C1.62485 9.07676 1.83117 8.91688 2.07039 8.82808L7.02664 7.02652L8.8282 2.07027C8.917 1.83105 9.07688 1.62473 9.28636 1.47904C9.49585 1.33334 9.74491 1.25525 10.0001 1.25525C10.2552 1.25525 10.5043 1.33334 10.7138 1.47904C10.9233 1.62473 11.0832 1.83105 11.172 2.07027L12.9743 7.02652L17.9298 8.82808C18.1713 8.91396 18.3801 9.07296 18.5271 9.28298C18.6741 9.493 18.7521 9.7436 18.7501 9.99996Z" fill="#8B57C2"/>
</svg>
