<svg width="30" height="30" viewBox="0 0 30 30" fill="none" xmlns="http://www.w3.org/2000/svg">
<rect width="30" height="30" rx="15" fill="#4B4B4B"/>
<path d="M15 23C19.4182 23 23 19.4182 23 15C23 10.5818 19.4182 7 15 7M15 23C10.5818 23 7 19.4182 7 15C7 10.5818 10.5818 7 15 7M15 23C17.1818 23 17.9091 19.3636 17.9091 15C17.9091 10.6364 17.1818 7 15 7M15 23C12.8182 23 12.0909 19.3636 12.0909 15C12.0909 10.6364 12.8182 7 15 7M7.72727 17.9091H22.2727M7.72727 12.0909H22.2727" stroke="white"/>
</svg>
