<svg width="24" height="24" viewBox="0 0 24 24" fill="none" xmlns="http://www.w3.org/2000/svg">
<path d="M12.0765 2.99805H12.21C13.443 3.00255 19.6905 3.04755 21.375 3.50055C21.8842 3.6388 22.3483 3.90828 22.7207 4.28206C23.0932 4.65584 23.361 5.12082 23.4975 5.63055C23.649 6.20055 23.7555 6.95505 23.8275 7.73355L23.8425 7.88955L23.8755 8.27955L23.8875 8.43555C23.985 9.80655 23.997 11.0905 23.9985 11.371V11.4835C23.997 11.7745 23.9835 13.1455 23.8755 14.5735L23.8635 14.731L23.85 14.887C23.775 15.745 23.664 16.597 23.4975 17.224C23.361 17.7338 23.0932 18.1988 22.7207 18.5725C22.3483 18.9463 21.8842 19.2158 21.375 19.354C19.635 19.822 13.0215 19.855 12.105 19.8565H11.892C11.4285 19.8565 9.5115 19.8475 7.5015 19.7785L7.2465 19.7695L7.116 19.7635L6.8595 19.753L6.603 19.7425C4.938 19.669 3.3525 19.5505 2.622 19.3525C2.11294 19.2144 1.64902 18.9452 1.27658 18.5717C0.904129 18.1982 0.636185 17.7335 0.4995 17.224C0.333 16.5985 0.222 15.745 0.147 14.887L0.135 14.7295L0.123 14.5735C0.0485451 13.5572 0.00752298 12.5386 0 11.5195L0 11.335C0.003 11.0125 0.015 9.89805 0.096 8.66805L0.1065 8.51355L0.111 8.43555L0.123 8.27955L0.156 7.88955L0.171 7.73355C0.243 6.95505 0.3495 6.19905 0.501 5.63055C0.637456 5.12082 0.905298 4.65584 1.27776 4.28206C1.65022 3.90828 2.11426 3.6388 2.6235 3.50055C3.354 3.30555 4.9395 3.18555 6.6045 3.11055L6.8595 3.10005L7.1175 3.09105L7.2465 3.08655L7.503 3.07605C8.93056 3.03015 10.3587 3.00465 11.787 2.99955L12.0765 2.99805ZM9.6 7.81305V15.04L15.8355 11.428L9.6 7.81305Z" fill="white"/>
</svg>
