<svg width="49" height="48" viewBox="0 0 49 48" fill="none" xmlns="http://www.w3.org/2000/svg">
<path d="M20.5 10H44.5M20.5 24H44.5M20.5 38H44.5" stroke="#8B57C2" stroke-width="2" stroke-linecap="round" stroke-linejoin="round"/>
<path d="M8.5 28C10.7091 28 12.5 26.2091 12.5 24C12.5 21.7909 10.7091 20 8.5 20C6.29086 20 4.5 21.7909 4.5 24C4.5 26.2091 6.29086 28 8.5 28Z" stroke="#8B57C2" stroke-width="2" stroke-linecap="round" stroke-linejoin="round"/>
<path d="M8.5 42C10.7091 42 12.5 40.2091 12.5 38C12.5 35.7909 10.7091 34 8.5 34C6.29086 34 4.5 35.7909 4.5 38C4.5 40.2091 6.29086 42 8.5 42Z" stroke="#8B57C2" stroke-width="2" stroke-linecap="round" stroke-linejoin="round"/>
<path d="M4.5 10L7.5 13L13.5 7" stroke="#8B57C2" stroke-width="2" stroke-linecap="round" stroke-linejoin="round"/>
</svg>
