<svg width="48" height="48" viewBox="0 0 48 48" fill="none" xmlns="http://www.w3.org/2000/svg">
<circle cx="24" cy="24" r="23.5" fill="#35293C" stroke="#8B57C2"/>
<circle cx="42" cy="8.25" r="2.25" fill="#8B57C2"/>
<circle cx="6.75" cy="39.75" r="4.5" fill="#8B57C2"/>
<g clip-path="url(#clip0_45_1125)">
<path d="M23.1562 10.5C24.3164 10.5 25.4326 10.6494 26.5049 10.9482C27.5771 11.2471 28.5879 11.6733 29.5371 12.2271C30.4863 12.7808 31.3389 13.4399 32.0947 14.2046C32.8506 14.9692 33.5098 15.8262 34.0723 16.7754C34.6348 17.7246 35.061 18.731 35.3511 19.7944C35.6411 20.8579 35.7949 21.9785 35.8125 23.1562C35.8125 24.3164 35.6631 25.4326 35.3643 26.5049C35.0654 27.5771 34.6392 28.5879 34.0854 29.5371C33.5317 30.4863 32.8726 31.3389 32.1079 32.0947C31.3433 32.8506 30.4863 33.5098 29.5371 34.0723C28.5879 34.6348 27.5815 35.061 26.5181 35.3511C25.4546 35.6411 24.334 35.7949 23.1562 35.8125C21.9961 35.8125 20.8799 35.6631 19.8076 35.3643C18.7354 35.0654 17.7246 34.6392 16.7754 34.0854C15.8262 33.5317 14.9736 32.8726 14.2178 32.1079C13.4619 31.3433 12.8027 30.4863 12.2402 29.5371C11.6777 28.5879 11.2515 27.5815 10.9614 26.5181C10.6714 25.4546 10.5176 24.334 10.5 23.1562C10.5 21.9961 10.6494 20.8799 10.9482 19.8076C11.2471 18.7354 11.6733 17.7246 12.2271 16.7754C12.7808 15.8262 13.4399 14.9736 14.2046 14.2178C14.9692 13.4619 15.8262 12.8027 16.7754 12.2402C17.7246 11.6777 18.731 11.2515 19.7944 10.9614C20.8579 10.6714 21.9785 10.5176 23.1562 10.5ZM23.1562 34.125C24.167 34.125 25.1382 33.9932 26.0698 33.7295C27.0015 33.4658 27.8716 33.0967 28.6802 32.6221C29.4888 32.1475 30.2314 31.5762 30.9082 30.9082C31.585 30.2402 32.1562 29.502 32.6221 28.6934C33.0879 27.8848 33.457 27.0103 33.7295 26.0698C34.002 25.1294 34.1338 24.1582 34.125 23.1562C34.125 22.1455 33.9932 21.1743 33.7295 20.2427C33.4658 19.311 33.0967 18.4409 32.6221 17.6323C32.1475 16.8237 31.5762 16.0811 30.9082 15.4043C30.2402 14.7275 29.502 14.1562 28.6934 13.6904C27.8848 13.2246 27.0103 12.8555 26.0698 12.583C25.1294 12.3105 24.1582 12.1787 23.1562 12.1875C22.1455 12.1875 21.1743 12.3193 20.2427 12.583C19.311 12.8467 18.4409 13.2158 17.6323 13.6904C16.8237 14.165 16.0811 14.7363 15.4043 15.4043C14.7275 16.0723 14.1562 16.8105 13.6904 17.6191C13.2246 18.4277 12.8555 19.3022 12.583 20.2427C12.3105 21.1831 12.1787 22.1543 12.1875 23.1562C12.1875 24.167 12.3193 25.1382 12.583 26.0698C12.8467 27.0015 13.2158 27.8716 13.6904 28.6802C14.165 29.4888 14.7363 30.2314 15.4043 30.9082C16.0723 31.585 16.8105 32.1562 17.6191 32.6221C18.4277 33.0879 19.3022 33.457 20.2427 33.7295C21.1831 34.002 22.1543 34.1338 23.1562 34.125ZM25.4238 22.0488C25.5996 22.4004 25.6875 22.7695 25.6875 23.1562C25.6875 23.5078 25.6216 23.8374 25.4897 24.145C25.3579 24.4526 25.1777 24.7207 24.9492 24.9492C24.7207 25.1777 24.4526 25.3579 24.145 25.4897C23.8374 25.6216 23.5078 25.6875 23.1562 25.6875C22.8047 25.6875 22.4751 25.6216 22.1675 25.4897C21.8599 25.3579 21.5918 25.1777 21.3633 24.9492C21.1348 24.7207 20.9546 24.4526 20.8228 24.145C20.6909 23.8374 20.625 23.5078 20.625 23.1562C20.625 22.8047 20.6909 22.4751 20.8228 22.1675C20.9546 21.8599 21.1348 21.5918 21.3633 21.3633C21.5918 21.1348 21.8599 20.9546 22.1675 20.8228C22.4751 20.6909 22.8047 20.625 23.1562 20.625C23.543 20.625 23.9121 20.7129 24.2637 20.8887L24.2505 20.8755L29.1021 16.0239L30.2886 17.2104L25.437 22.062L25.4238 22.0488ZM23.1562 24C23.3848 24 23.5825 23.9165 23.7495 23.7495C23.9165 23.5825 24 23.3848 24 23.1562C24 22.9277 23.9165 22.73 23.7495 22.563C23.5825 22.396 23.3848 22.3125 23.1562 22.3125C22.9277 22.3125 22.73 22.396 22.563 22.563C22.396 22.73 22.3125 22.9277 22.3125 23.1562C22.3125 23.3848 22.396 23.5825 22.563 23.7495C22.73 23.9165 22.9277 24 23.1562 24ZM31.5938 19.3594C31.8662 19.957 32.0684 20.5723 32.2002 21.2051C32.332 21.8379 32.4023 22.4883 32.4111 23.1562C32.4111 24.3867 32.1826 25.5688 31.7256 26.7026C31.2686 27.8364 30.6006 28.8428 29.7217 29.7217L28.522 28.522C29.2339 27.8101 29.7832 26.9971 30.1699 26.083C30.5566 25.1689 30.75 24.2065 30.75 23.1958C30.75 22.106 30.5215 21.0557 30.0645 20.0449L31.5938 19.3594ZM26.2676 16.248C25.2568 15.791 24.2065 15.5625 23.1167 15.5625C22.4224 15.5625 21.7544 15.6504 21.1128 15.8262C20.4712 16.002 19.8691 16.2612 19.3066 16.604C18.7441 16.9468 18.2344 17.3423 17.7773 17.7905C17.3203 18.2388 16.9292 18.7529 16.604 19.333C16.2788 19.9131 16.0239 20.5151 15.8394 21.1392C15.6548 21.7632 15.5625 22.4355 15.5625 23.1562C15.5625 24.167 15.7559 25.1338 16.1426 26.0566C16.5293 26.9795 17.0786 27.8013 17.7905 28.522L16.5908 29.7217C15.7119 28.8428 15.0396 27.8408 14.5737 26.7158C14.1079 25.5908 13.875 24.4043 13.875 23.1562C13.875 22.3037 13.9849 21.4819 14.2046 20.6909C14.4243 19.8999 14.7363 19.1616 15.1406 18.4761C15.5449 17.7905 16.0283 17.1665 16.5908 16.604C17.1533 16.0415 17.7773 15.5625 18.4629 15.167C19.1484 14.7715 19.8867 14.4595 20.6777 14.231C21.4688 14.0024 22.2949 13.8926 23.1562 13.9014C23.8154 13.9014 24.4614 13.9673 25.0942 14.0991C25.7271 14.231 26.3467 14.4375 26.9531 14.7188L26.2676 16.248Z" fill="#8B57C2"/>
</g>
<defs>
<clipPath id="clip0_45_1125">
<rect width="27" height="27" fill="white" transform="translate(10.5 10.5)"/>
</clipPath>
</defs>
</svg>
