<svg width="48" height="48" viewBox="0 0 48 48" fill="none" xmlns="http://www.w3.org/2000/svg">
<circle cx="24" cy="24" r="23.5" fill="#35293C" stroke="#8B57C2"/>
<circle cx="42" cy="8.25" r="2.25" fill="#8B57C2"/>
<circle cx="6.75" cy="39.75" r="4.5" fill="#8B57C2"/>
<path d="M30.75 28.2188C30.3281 28.2188 29.9062 28.05 29.5688 27.7125L27.0375 25.1812C26.7 24.8438 26.5312 24.4219 26.5312 24C26.5312 23.5781 26.7 23.1562 27.0375 22.8188L29.5688 20.2875C29.9062 19.95 30.3281 19.7812 30.75 19.7812C31.1719 19.7812 31.5938 19.95 31.9312 20.2875L34.4625 22.8188C34.8 23.1562 34.9688 23.5781 34.9688 24C34.9688 24.4219 34.8 24.8438 34.4625 25.1812L31.9312 27.7125C31.5938 28.05 31.1719 28.2188 30.75 28.2188ZM30.75 21.4688L28.2188 24L30.75 26.5312L33.2812 24L30.75 21.4688ZM24 21.4688C23.5781 21.4688 23.1562 21.3 22.8188 20.9625L20.2875 18.4312C19.95 18.0937 19.7812 17.6719 19.7812 17.25C19.7812 16.8281 19.95 16.4062 20.2875 16.0687L22.8188 13.5375C23.1562 13.2 23.5781 13.0312 24 13.0312C24.4219 13.0312 24.8438 13.2 25.1812 13.5375L27.7125 16.0687C28.05 16.4062 28.2188 16.8281 28.2188 17.25C28.2188 17.6719 28.05 18.0937 27.7125 18.4312L25.1812 20.9625C24.8438 21.3 24.4219 21.4688 24 21.4688ZM24 14.7188L21.4688 17.25L24 19.7812L26.5312 17.25L24 14.7188ZM24 34.9688C23.5781 34.9688 23.1562 34.8 22.8188 34.4625L20.2875 31.9312C19.95 31.5938 19.7812 31.1719 19.7812 30.75C19.7812 30.3281 19.95 29.9062 20.2875 29.5688L22.8188 27.0375C23.1562 26.7 23.5781 26.5312 24 26.5312C24.4219 26.5312 24.8438 26.7 25.1812 27.0375L27.7125 29.5688C28.05 29.9062 28.2188 30.3281 28.2188 30.75C28.2188 31.1719 28.05 31.5938 27.7125 31.9312L25.1812 34.4625C24.8438 34.8 24.4219 34.9688 24 34.9688ZM24 28.2188L21.4688 30.75L24 33.2812L26.5312 30.75L24 28.2188ZM17.25 28.2188C16.8281 28.2188 16.4062 28.05 16.0687 27.7125L13.5375 25.1812C13.2 24.8438 13.0312 24.4219 13.0312 24C13.0312 23.5781 13.2 23.1562 13.5375 22.8188L16.0687 20.2875C16.4062 19.95 16.8281 19.7812 17.25 19.7812C17.6719 19.7812 18.0937 19.95 18.4312 20.2875L20.9625 22.8188C21.3 23.1562 21.4688 23.5781 21.4688 24C21.4688 24.4219 21.3 24.8438 20.9625 25.1812L18.4312 27.7125C18.0937 28.05 17.6719 28.2188 17.25 28.2188ZM17.25 21.4688L14.7188 24L17.25 26.5312L19.7812 24L17.25 21.4688Z" fill="#8B57C2"/>
</svg>
