<svg width="48" height="48" viewBox="0 0 48 48" fill="none" xmlns="http://www.w3.org/2000/svg">
<circle cx="24" cy="24" r="23.5" fill="#35293C" stroke="#8B57C2"/>
<circle cx="42" cy="8.25" r="2.25" fill="#8B57C2"/>
<circle cx="6.75" cy="39.75" r="4.5" fill="#8B57C2"/>
<path d="M34.1588 22.5489C34.5531 21.5837 34.6849 20.5313 34.5408 19.4987C34.3966 18.4661 33.9817 17.49 33.3381 16.6697C32.6946 15.8494 31.8454 15.2141 30.8767 14.8282C29.9081 14.4424 28.8546 14.3199 27.8233 14.4731C27.1842 13.6499 26.3386 13.0104 25.3724 12.6196C24.4062 12.2288 23.3538 12.1007 22.3221 12.2482C21.2903 12.3957 20.316 12.8136 19.498 13.4594C18.68 14.1053 18.0474 14.9561 17.6646 15.9254C16.6315 16.0668 15.6544 16.4792 14.8323 17.1206C14.0103 17.762 13.3727 18.6096 12.9843 19.5772C12.596 20.5448 12.4707 21.598 12.6212 22.6298C12.7717 23.6615 13.1927 24.635 13.8413 25.4514C13.5248 26.227 13.3769 27.0612 13.4075 27.8984C13.4381 28.7356 13.6464 29.5568 14.0187 30.3073C14.391 31.0578 14.9186 31.7206 15.5667 32.2515C16.2147 32.7825 16.9683 33.1695 17.7774 33.3868C18.2789 33.5241 18.7963 33.595 19.3162 33.5978C19.6046 33.5975 19.8926 33.576 20.1779 33.5334C20.8171 34.3564 21.6628 34.9956 22.6289 35.3861C23.595 35.7767 24.6473 35.9046 25.6789 35.757C26.7104 35.6094 27.6846 35.1915 28.5025 34.5458C29.3203 33.9 29.9528 33.0493 30.3356 32.0801C31.3686 31.9387 32.3458 31.5263 33.1678 30.8849C33.9899 30.2435 34.6275 29.3959 35.0158 28.4283C35.4042 27.4607 35.5295 26.4075 35.379 25.3757C35.2284 24.344 34.8075 23.3705 34.1588 22.5541V22.5489ZM29.785 16.2408C30.8483 16.525 31.7583 17.2134 32.3211 18.1592C32.8838 19.105 33.0547 20.2333 32.7972 21.3033C32.6971 21.2362 32.5947 21.1725 32.4903 21.1124L27.797 18.3976C27.6687 18.3236 27.5232 18.2846 27.3751 18.2846C27.227 18.2846 27.0815 18.3236 26.9532 18.3976L22.3126 21.0776V19.1285L26.5841 16.6627C27.0633 16.3843 27.5929 16.2037 28.1423 16.1313C28.6918 16.0589 29.2501 16.0961 29.785 16.2408ZM25.6876 24.9746L24.0001 25.9492L22.3126 24.9746V23.0256L24.0001 22.0511L25.6876 23.0256V24.9746ZM18.9376 18.0939C18.938 17.2691 19.1801 16.4625 19.634 15.7739C20.088 15.0853 20.7338 14.5449 21.4916 14.2194C22.2495 13.894 23.0861 13.7978 23.898 13.9428C24.7099 14.0878 25.4615 14.4676 26.0599 15.0353C25.9544 15.0891 25.849 15.1407 25.7435 15.2061L21.047 17.9114C20.9188 17.9854 20.8124 18.0918 20.7383 18.2199C20.6643 18.348 20.6252 18.4933 20.6251 18.6412V24.0001L18.9376 23.0256V18.0939ZM14.8095 19.6685C15.3471 18.731 16.226 18.0373 17.2627 17.7321C17.2548 17.8525 17.2506 17.9732 17.2501 18.0939V23.5128C17.2501 23.661 17.289 23.8065 17.3631 23.9348C17.4371 24.0631 17.5437 24.1697 17.672 24.2437L22.3126 26.9227L20.6251 27.9025L16.3536 25.4313C15.3847 24.8719 14.6777 23.9504 14.3881 22.8697C14.0985 21.789 14.2501 20.6375 14.8095 19.6685ZM18.2151 31.7595C17.1519 31.4752 16.2419 30.7868 15.6791 29.841C15.1164 28.8952 14.9455 27.767 15.2029 26.697C15.3031 26.7634 15.4044 26.8277 15.5098 26.8878L20.2032 29.6026C20.3315 29.6767 20.477 29.7157 20.6251 29.7157C20.7732 29.7157 20.9187 29.6767 21.047 29.6026L25.6876 26.9227V28.8717L21.4161 31.3376C20.9369 31.6159 20.4073 31.7965 19.8578 31.8689C19.3084 31.9413 18.7501 31.9041 18.2151 31.7595ZM29.0626 29.9064C29.063 30.7314 28.8216 31.5384 28.3681 32.2276C27.9146 32.9168 27.269 33.4579 26.5112 33.7839C25.7533 34.11 24.9165 34.2067 24.1043 34.0621C23.292 33.9174 22.54 33.5378 21.9413 32.9702C22.0468 32.9164 22.1523 32.8595 22.2577 32.7983L26.9532 30.0888C27.0813 30.0148 27.1878 29.9085 27.2618 29.7804C27.3359 29.6523 27.3749 29.5069 27.3751 29.359V24.0001L29.0626 24.9746V29.9064ZM33.1906 28.3317C32.653 29.2693 31.7742 29.963 30.7374 30.2681C30.7448 30.1479 30.7501 30.0277 30.7501 29.9064V24.4874C30.7501 24.3392 30.7111 24.1937 30.6371 24.0654C30.563 23.9371 30.4565 23.8306 30.3282 23.7565L25.6876 21.0776L27.3751 20.103L31.6466 22.5689C32.6155 23.1284 33.3225 24.0498 33.6121 25.1305C33.9016 26.2113 33.75 27.3628 33.1906 28.3317Z" fill="#8B57C2"/>
</svg>
