<svg width="48" height="48" viewBox="0 0 48 48" fill="none" xmlns="http://www.w3.org/2000/svg">
<rect x="0.5" y="0.5" width="47" height="47" rx="23.5" stroke="#8B57C2"/>
<path d="M14.1533 35C13.54 35 13.028 34.7882 12.6173 34.3647C12.2067 33.9412 12.0009 33.4128 12 32.7794V19.3456C12 18.7131 12.2058 18.1851 12.6173 17.7616C13.0289 17.3381 13.5409 17.1259 14.1533 17.125H20V15.2206C20 14.5881 20.2058 14.0601 20.6173 13.6366C21.0289 13.2131 21.5409 13.0009 22.1533 13H25.8467C26.46 13 26.9724 13.2122 27.384 13.6366C27.7956 14.061 28.0009 14.589 28 15.2206V17.125H33.8467C34.46 17.125 34.972 17.3372 35.3827 17.7616C35.7933 18.186 35.9991 18.714 36 19.3456V32.7794C36 33.4119 35.7947 33.9399 35.384 34.3634C34.9733 34.7869 34.4609 34.9991 33.8467 35H14.1533ZM21.3333 17.125H26.6667V15.2206C26.6667 15.0098 26.5813 14.8159 26.4107 14.639C26.24 14.4621 26.052 14.3741 25.8467 14.375H22.1533C21.9489 14.375 21.7609 14.463 21.5893 14.639C21.4178 14.815 21.3324 15.0089 21.3333 15.2206V17.125ZM34.6667 27.4375H26.6667V29.5H21.3333V27.4375H13.3333V32.7794C13.3333 32.9902 13.4187 33.1841 13.5893 33.361C13.76 33.5379 13.948 33.6259 14.1533 33.625H33.8467C34.0511 33.625 34.2391 33.537 34.4107 33.361C34.5822 33.185 34.6676 32.9911 34.6667 32.7794V27.4375ZM22.6667 28.125H25.3333V25.375H22.6667V28.125ZM13.3333 26.0625H21.3333V24H26.6667V26.0625H34.6667V19.3456C34.6667 19.1348 34.5813 18.9409 34.4107 18.764C34.24 18.5871 34.052 18.4991 33.8467 18.5H14.1533C13.9489 18.5 13.7609 18.588 13.5893 18.764C13.4178 18.94 13.3324 19.1339 13.3333 19.3456V26.0625Z" fill="#8B57C2"/>
</svg>
