<svg width="48" height="48" viewBox="0 0 48 48" fill="none" xmlns="http://www.w3.org/2000/svg">
<rect x="0.5" y="0.5" width="47" height="47" rx="23.5" stroke="#8B57C2"/>
<path d="M12 22.1875L15.3067 14.5908C15.5124 14.1183 15.8546 13.7156 16.2907 13.4328C16.7269 13.15 17.2378 12.9995 17.76 13H30.2427C30.7645 13.0001 31.2748 13.1508 31.7104 13.4336C32.146 13.7163 32.4877 14.1187 32.6933 14.5908L36 22.1875M12 22.1875H36M12 22.1875V31.375M36 22.1875V31.375M12 31.375V32.0313C12 32.5534 12.2107 33.0542 12.5858 33.4234C12.9609 33.7926 13.4696 34 14 34C14.5304 34 15.0391 33.7926 15.4142 33.4234C15.7893 33.0542 16 32.5534 16 32.0313V31.375M12 31.375H16M36 31.375V32.0313C36 32.5534 35.7893 33.0542 35.4142 33.4234C35.0391 33.7926 34.5304 34 34 34C33.4696 34 32.9609 33.7926 32.5858 33.4234C32.2107 33.0542 32 32.5534 32 32.0313V31.375M36 31.375H32M32 31.375H16" stroke="#8B57C2" stroke-width="2" stroke-linecap="round" stroke-linejoin="round"/>
</svg>
