<svg width="48" height="48" viewBox="0 0 48 48" fill="none" xmlns="http://www.w3.org/2000/svg">
<path d="M24 38C27.3137 38 30 35.3137 30 32C30 28.6863 27.3137 26 24 26C20.6863 26 18 28.6863 18 32C18 35.3137 20.6863 38 24 38Z" stroke="#8B57C2" stroke-width="1.5"/>
<path d="M18.2261 31.9199L16.1461 33.9999L13.1901 36.8339C12.5421 37.4559 12.2181 37.7659 12.1061 38.0299C11.9802 38.3107 11.9637 38.6284 12.0599 38.9207C12.1561 39.213 12.358 39.4588 12.6261 39.6099C12.8701 39.7479 13.3121 39.7899 14.1921 39.8779C14.6881 39.9259 14.9381 39.9499 15.1461 40.0239C15.3723 40.1021 15.5789 40.2284 15.7515 40.3941C15.9242 40.5598 16.0588 40.7611 16.1461 40.9839C16.2241 41.1839 16.2501 41.4219 16.3001 41.8999C16.3901 42.7439 16.4361 43.1659 16.5801 43.3999C16.9081 43.9339 17.6021 44.1439 18.2281 43.8999C18.5021 43.7899 18.8261 43.4799 19.4741 42.8599L24.0001 38.5199L28.5261 42.8599C29.1741 43.4799 29.4981 43.7899 29.7721 43.8999C30.3981 44.1439 31.0921 43.9339 31.4201 43.3999C31.5641 43.1659 31.6101 42.7439 31.7001 41.8999C31.7501 41.4219 31.7761 41.1839 31.8541 40.9839C31.9415 40.7612 32.0762 40.56 32.2488 40.3943C32.4215 40.2285 32.628 40.1022 32.8541 40.0239C33.0641 39.9499 33.3121 39.9259 33.8081 39.8779C34.6881 39.7919 35.1301 39.7479 35.3741 39.6099C35.6422 39.4588 35.8441 39.213 35.9403 38.9207C36.0365 38.6284 36.0201 38.3107 35.8941 38.0299C35.7821 37.7659 35.4581 37.4559 34.8101 36.8339L31.8521 33.9999L30.0001 32.1459" stroke="#8B57C2" stroke-width="1.5"/>
<path d="M34.64 35.992C38.584 35.95 40.784 35.702 42.242 34.242C44 32.486 44 29.656 44 24V16C44 10.344 44 7.514 42.242 5.758C40.486 4 37.656 4 32 4H16C10.344 4 7.514 4 5.758 5.758C4 7.514 4 10.344 4 16V24C4 29.656 4 32.486 5.758 34.242C7.294 35.78 9.65 35.972 14 35.996" stroke="#8B57C2" stroke-width="1.5"/>
<path d="M18 12H30M14 19H34" stroke="#8B57C2" stroke-width="1.5" stroke-linecap="round"/>
</svg>
