<svg width="48" height="48" viewBox="0 0 48 48" fill="none" xmlns="http://www.w3.org/2000/svg">
<rect x="0.5" y="0.5" width="47" height="47" rx="23.5" stroke="#8B57C2"/>
<path d="M23.7998 29.2053H24.4927V28.1653C25.0994 28.0791 25.6137 27.8333 26.0358 27.428C26.4579 27.0227 26.6693 26.5004 26.6702 25.8613C26.6702 25.3067 26.4535 24.8427 26.0202 24.4693C25.5869 24.096 25.0885 23.7876 24.5252 23.544V20.8467C24.7748 20.8956 24.991 21.0022 25.1739 21.1667C25.3568 21.3311 25.4889 21.5156 25.5704 21.72L26.4895 21.3227C26.3214 20.9244 26.0609 20.5978 25.7082 20.3427C25.3555 20.0876 24.9611 19.9187 24.5252 19.836V18.796H23.7998V19.828C23.1931 19.8902 22.6788 20.1049 22.2567 20.472C21.8346 20.8391 21.6232 21.3262 21.6223 21.9333C21.6223 22.4996 21.8446 22.9796 22.2892 23.3733C22.7338 23.7671 23.2373 24.0836 23.7998 24.3227V27.136C23.3864 27.0587 23.0484 26.8911 22.7858 26.6333C22.5232 26.3756 22.3395 26.0689 22.2346 25.7133L21.322 26.1107C21.4953 26.6724 21.7987 27.1347 22.232 27.4973C22.6653 27.8582 23.1879 28.0831 23.7998 28.172V29.2053ZM24.5252 27.128V24.5947C24.8285 24.7369 25.0976 24.908 25.3325 25.108C25.5674 25.308 25.6848 25.5756 25.6848 25.9107C25.6848 26.2929 25.5773 26.5733 25.3624 26.752C25.1475 26.9307 24.8684 27.056 24.5252 27.128ZM23.7998 23.2387C23.5112 23.0929 23.2404 22.9209 22.9873 22.7227C22.7342 22.5244 22.6077 22.2613 22.6077 21.9333C22.6077 21.5778 22.7303 21.3178 22.9756 21.1533C23.2209 20.9889 23.4956 20.884 23.7998 20.8387V23.2387ZM18.8 32C16.6273 32 14.7839 31.2244 13.2698 29.6733C11.7557 28.1222 10.9991 26.2329 11 24.0053C11.0009 21.7778 11.7575 19.8867 13.2698 18.332C14.7821 16.7773 16.6255 16 18.8 16H29.2C31.3727 16 33.2161 16.7756 34.7302 18.3267C36.2443 19.8778 37.0009 21.7671 37 23.9947C36.9991 26.2222 36.2425 28.1133 34.7302 29.668C33.2179 31.2227 31.3745 32 29.2 32H18.8ZM18.8 30.6667H29.2C30.9983 30.6667 32.5315 30.0164 33.7994 28.716C35.0673 27.4156 35.7009 25.8436 35.7 24C35.6991 22.1564 35.0652 20.5844 33.7981 19.284C32.531 17.9836 30.9983 17.3333 29.2 17.3333H18.8C17.0017 17.3333 15.469 17.9836 14.2019 19.284C12.9348 20.5844 12.3009 22.1564 12.3 24C12.2991 25.8436 12.9331 27.416 14.2019 28.7173C15.4707 30.0187 17.0034 30.6684 18.8 30.6667Z" fill="#8B57C2"/>
</svg>
