<svg width="48" height="48" viewBox="0 0 48 48" fill="none" xmlns="http://www.w3.org/2000/svg">
<rect x="0.5" y="0.5" width="47" height="47" rx="23.5" stroke="#8B57C2"/>
<path d="M26.6803 14.0327C26.9166 14.0956 27.118 14.2493 27.2405 14.4602C27.3629 14.671 27.3963 14.9216 27.3332 15.1569L22.4484 33.3189C22.3849 33.5544 22.2302 33.7551 22.0182 33.877C21.8062 33.9988 21.5542 34.0318 21.3178 33.9686C21.0814 33.9054 20.8799 33.7513 20.7576 33.5401C20.6352 33.3289 20.6021 33.078 20.6656 32.8425L25.5516 14.6805C25.583 14.564 25.6371 14.4548 25.7109 14.3591C25.7847 14.2634 25.8767 14.1831 25.9816 14.1228C26.0865 14.0626 26.2024 14.0235 26.3225 14.0078C26.4426 13.9921 26.5646 14.0002 26.6816 14.0315M29.4627 17.7704C29.6263 17.5894 29.8553 17.4804 30.0995 17.4676C30.3436 17.4547 30.5829 17.539 30.7648 17.7018L32.9004 19.6172C33.8066 20.428 34.5566 21.1015 35.073 21.7114C35.6139 22.3544 36 23.0439 36 23.8962C36 24.7474 35.6152 25.4369 35.073 26.0786C34.5566 26.6897 33.8066 27.3633 32.9004 28.174L30.7648 30.0894C30.583 30.2525 30.3436 30.3369 30.0993 30.3242C29.855 30.3114 29.6258 30.2025 29.4621 30.0215C29.2984 29.8404 29.2136 29.602 29.2264 29.3586C29.2392 29.1153 29.3485 28.887 29.5303 28.7239L31.6168 26.8538C32.5857 25.9855 33.2385 25.3965 33.6615 24.8968C34.0672 24.4155 34.1557 24.1351 34.1557 23.895C34.1557 23.6562 34.0672 23.3758 33.6615 22.8945C33.2385 22.3936 32.5857 21.8045 31.6168 20.9374L29.5303 19.0673C29.4401 18.9867 29.3668 18.889 29.3146 18.7801C29.2623 18.6712 29.2321 18.553 29.2257 18.4325C29.2193 18.3119 29.2368 18.1913 29.2773 18.0774C29.3177 17.9636 29.3803 17.8589 29.4615 17.7692M18.4697 19.0673C18.6515 18.9043 18.7608 18.676 18.7736 18.4326C18.7864 18.1893 18.7016 17.9509 18.5379 17.7698C18.3742 17.5887 18.145 17.4798 17.9007 17.4671C17.6564 17.4543 17.417 17.5388 17.2352 17.7018L15.0996 19.6172C14.1934 20.428 13.4434 21.1015 12.927 21.7114C12.3861 22.3544 12 23.0439 12 23.8962C12 24.7474 12.3848 25.4369 12.927 26.0786C13.4434 26.6897 14.1934 27.3633 15.0996 28.174L17.2352 30.0894C17.417 30.2525 17.6564 30.3369 17.9007 30.3242C18.145 30.3114 18.3742 30.2025 18.5379 30.0215C18.7016 29.8404 18.7864 29.602 18.7736 29.3586C18.7608 29.1153 18.6515 28.887 18.4697 28.7239L16.3832 26.8538C15.4143 25.9855 14.7615 25.3965 14.3385 24.8968C13.9328 24.4155 13.8443 24.1351 13.8443 23.895C13.8443 23.6562 13.9328 23.3758 14.3385 22.8945C14.7615 22.3936 15.4143 21.8045 16.3832 20.9374L18.4697 19.0673Z" fill="#8B57C2"/>
</svg>
