<svg width="48" height="48" viewBox="0 0 48 48" fill="none" xmlns="http://www.w3.org/2000/svg">
<rect x="0.5" y="0.5" width="47" height="47" rx="23.5" stroke="#8B57C2"/>
<path d="M18.5001 15.5C18.5001 15.1022 18.6581 14.7207 18.9394 14.4394C19.2207 14.158 19.6023 14 20.0001 14H28.0004C28.1974 14 28.3924 14.0388 28.5744 14.1142C28.7564 14.1896 28.9218 14.3001 29.0611 14.4394C29.2004 14.5786 29.3109 14.744 29.3862 14.926C29.4616 15.108 29.5004 15.3031 29.5004 15.5C29.5004 15.697 29.4616 15.8921 29.3862 16.0741C29.3109 16.2561 29.2004 16.4214 29.0611 16.5607C28.9218 16.7 28.7564 16.8105 28.5744 16.8859C28.3924 16.9613 28.1974 17.0001 28.0004 17.0001H20.0001C19.6023 17.0001 19.2207 16.8421 18.9394 16.5607C18.6581 16.2794 18.5001 15.8979 18.5001 15.5ZM18.5501 20.5602C18.6906 20.3855 18.8685 20.2444 19.0708 20.1475C19.273 20.0506 19.4944 20.0003 19.7186 20.0002H28.2809C28.5053 20.0001 28.7269 20.0504 28.9293 20.1473C29.1317 20.2442 29.3098 20.3853 29.4504 20.5602L31.6695 23.3218C31.8836 23.5883 32.0002 23.92 32 24.2618V32.5006C32 32.8984 31.842 33.28 31.5606 33.5613C31.2793 33.8426 30.8978 34.0006 30.5 34.0006H17.5C17.1022 34.0006 16.7207 33.8426 16.4394 33.5613C16.158 33.28 16 32.8984 16 32.5006V24.2618C15.9998 23.92 16.1164 23.5883 16.3305 23.3218L18.5501 20.5602Z" stroke="#8B57C2" stroke-width="2" stroke-linejoin="round"/>
<path d="M21.0002 27.0003H27.0003M24.0002 24.0002V30.0004" stroke="#8B57C2" stroke-width="2" stroke-linecap="round" stroke-linejoin="round"/>
</svg>
