<svg width="49" height="48" viewBox="0 0 49 48" fill="none" xmlns="http://www.w3.org/2000/svg">
<g clip-path="url(#clip0_2562_20)">
<path d="M13.8333 13.833H14.3333V13.333V7.99967V7.49967H13.8333H8.49992H7.99992V7.99967V13.333V13.833H8.49992H13.8333ZM6.81164 6.3114C7.11795 6.00509 7.5334 5.83301 7.96658 5.83301H15.9999V15.4997H6.33325V7.46634C6.33325 7.03315 6.50533 6.61771 6.81164 6.3114Z" fill="#8B57C2" stroke="#8B57C2"/>
<path d="M8.49992 34.1667H7.99992V34.6667V40V40.5H8.49992H13.8333H14.3333V40V34.6667V34.1667H13.8333H8.49992ZM6.81164 41.6883C6.50533 41.382 6.33325 40.9665 6.33325 40.5333V32.5H15.9999V42.1667H7.96658C7.5334 42.1667 7.11795 41.9946 6.81164 41.6883Z" fill="#8B57C2" stroke="#8B57C2"/>
<path d="M35.1667 34.1667H34.6667V34.6667V40V40.5H35.1667H40.5H41V40V34.6667V34.1667H40.5H35.1667ZM41.0333 42.1667H33V32.5H42.6667V40.5333C42.6667 40.9665 42.4946 41.382 42.1883 41.6883C41.882 41.9946 41.4665 42.1667 41.0333 42.1667Z" fill="#8B57C2" stroke="#8B57C2"/>
<path d="M40.5 13.833H41V13.333V7.99967V7.49967H40.5H35.1667H34.6667V7.99967V13.333V13.833H35.1667H40.5ZM42.6667 7.46634V15.4997H33V5.83301H41.0333C41.4665 5.83301 41.882 6.00509 42.1883 6.3114C42.4946 6.61771 42.6667 7.03315 42.6667 7.46634Z" fill="#8B57C2" stroke="#8B57C2"/>
<path d="M27.1666 13.3337V10.667H21.8333V16.0003H24.4999V13.3337H27.1666Z" fill="#8B57C2"/>
<path d="M16.5 16H19.1667V18.6667H16.5V16Z" fill="#8B57C2"/>
<path d="M19.1667 18.667H24.5001V21.3337H19.1667V18.667Z" fill="#8B57C2"/>
<path d="M27.1667 7.99967V10.6663H29.8334V5.33301H19.1667V10.6663H21.8334V7.99967H27.1667Z" fill="#8B57C2"/>
<path d="M5.83325 18.667H8.49992V24.0003H5.83325V18.667Z" fill="#8B57C2"/>
<path d="M16.4999 21.3337V24.0003H13.8333V18.667H11.1666V24.0003H8.49992V26.667H5.83325V29.3337H11.1666V26.667H13.8333V29.3337H16.4999V26.667H19.1666V21.3337H16.4999Z" fill="#8B57C2"/>
<path d="M27.1667 21.333H29.8333V23.9997H32.5V21.333H35.1667V18.6663H29.8333V13.333H27.1667V15.9997H24.5V18.6663H27.1667V21.333Z" fill="#8B57C2"/>
<path d="M24.5001 39.9997H19.1667V42.6663H29.8334V39.9997H27.1667V37.333H24.5001V39.9997Z" fill="#8B57C2"/>
<path d="M29.8333 26.6663V23.9997H27.1666V21.333H24.4999V23.9997H21.8333V26.6663H24.4999V29.333H27.1666V26.6663H29.8333Z" fill="#8B57C2"/>
<path d="M40.5 26.667H43.1667V29.3337H40.5V26.667Z" fill="#8B57C2"/>
<path d="M29.8333 26.667H37.8333V29.3337H29.8333V26.667Z" fill="#8B57C2"/>
<path d="M40.5001 18.667H37.8334V21.3337H35.1667V24.0003H37.8334V26.667H40.5001V24.0003H43.1667V21.3337H40.5001V18.667Z" fill="#8B57C2"/>
<path d="M27.1667 29.333H29.8334V37.333H27.1667V29.333Z" fill="#8B57C2"/>
<path d="M19.1667 37.3337H21.8334V34.667H24.5001V32.0003H21.8334V26.667H19.1667V37.3337Z" fill="#8B57C2"/>
</g>
<defs>
<clipPath id="clip0_2562_20">
<rect width="48" height="48" fill="white" transform="translate(0.5)"/>
</clipPath>
</defs>
</svg>
