<svg width="48" height="48" viewBox="0 0 48 48" fill="none" xmlns="http://www.w3.org/2000/svg">
<rect x="0.5" y="0.5" width="47" height="47" rx="23.5" stroke="#8B57C2"/>
<path d="M22.3396 19.5085C21.182 20.3876 20.0868 21.3463 19.0619 22.3777C14.2321 27.2174 11.7866 32.6102 13.597 34.4259C15.4073 36.2399 20.7908 33.7877 25.6189 28.9497C26.6482 27.9222 27.6049 26.8242 28.4821 25.6637" stroke="#8B57C2" stroke-width="1.5" stroke-linecap="round" stroke-linejoin="round"/>
<path d="M28.4822 25.6637C31.3302 29.4518 32.4901 33.0152 31.0839 34.4242C29.2719 36.2399 23.8901 33.7878 19.0603 28.9497C14.2339 24.1083 11.7884 18.7172 13.5987 16.9015C15.0049 15.4942 18.561 16.6565 22.3413 19.5086" stroke="#8B57C2" stroke-width="1.5" stroke-linecap="round" stroke-linejoin="round"/>
<path d="M21.4903 25.6637C21.4903 25.8894 21.5798 26.1058 21.739 26.2654C21.8982 26.425 22.1142 26.5146 22.3394 26.5146C22.5646 26.5146 22.7806 26.425 22.9398 26.2654C23.0991 26.1058 23.1885 25.8894 23.1885 25.6637C23.1885 25.4381 23.0991 25.2216 22.9398 25.0621C22.7806 24.9025 22.5646 24.8129 22.3394 24.8129C22.1142 24.8129 21.8982 24.9025 21.739 25.0621C21.5798 25.2216 21.4903 25.4381 21.4903 25.6637ZM25.7529 18.2544C25.218 18.1608 25.218 17.3933 25.7529 17.3014C26.6977 17.1367 27.5722 16.6938 28.2648 16.0292C28.9574 15.3646 29.4368 14.5083 29.6419 13.5695L29.6725 13.4215C29.788 12.894 30.5386 12.8906 30.6575 13.4164L30.6982 13.5883C30.911 14.5228 31.3946 15.3736 32.0883 16.0336C32.7821 16.6937 33.655 17.1335 34.5974 17.298C35.1341 17.3916 35.1341 18.1642 34.5974 18.2561C33.655 18.4206 32.7821 18.8605 32.0883 19.5205C31.3946 20.1806 30.911 21.0313 30.6982 21.9659L30.6575 22.1378C30.5386 22.6653 29.788 22.6619 29.6725 22.1343L29.6385 21.9863C29.4334 21.0476 28.954 20.1913 28.2614 19.5266C27.5688 18.862 26.6943 18.4191 25.7495 18.2544H25.7529Z" stroke="#8B57C2" stroke-width="1.5" stroke-linecap="round" stroke-linejoin="round"/>
</svg>
