<svg width="48" height="48" viewBox="0 0 48 48" fill="none" xmlns="http://www.w3.org/2000/svg">
<rect x="0.5" y="0.5" width="47" height="47" rx="23.5" stroke="#8B57C2"/>
<path d="M22.3475 35H34.8108M31.695 17.8605L33.2529 19.4186M34.0318 13.9651C34.3388 14.272 34.5823 14.6364 34.7484 15.0374C34.9145 15.4384 35 15.8683 35 16.3023C35 16.7364 34.9145 17.1662 34.7484 17.5673C34.5823 17.9683 34.3388 18.3326 34.0318 18.6395L19.2317 33.4419L13 35L14.5579 28.8547L29.3643 13.9714C29.9479 13.3848 30.7307 13.0392 31.5573 13.0031C32.3838 12.9671 33.1937 13.2431 33.8262 13.7766L34.0318 13.9651Z" stroke="#8B57C2" stroke-width="2" stroke-linecap="round" stroke-linejoin="round"/>
</svg>
