<svg width="48" height="48" viewBox="0 0 48 48" fill="none" xmlns="http://www.w3.org/2000/svg">
<rect x="0.5" y="0.5" width="47" height="47" rx="23.5" stroke="#8B57C2"/>
<path d="M24 29.4054V34M19.3847 34H28.6154M34.9477 30.1773C27.6859 29.1482 20.3142 29.1482 13.0524 30.1773C12.9223 30.1956 12.7898 30.1861 12.6638 30.1494C12.5377 30.1126 12.421 30.0495 12.3214 29.9643C12.2218 29.8791 12.1416 29.7736 12.0862 29.6551C12.0308 29.5365 12.0014 29.4076 12.0001 29.2768V13.9126C11.9983 13.7809 12.0256 13.6504 12.08 13.5303C12.1344 13.4103 12.2146 13.3035 12.3149 13.2176C12.4153 13.1318 12.5333 13.0689 12.6607 13.0333C12.7881 12.9978 12.9218 12.9906 13.0524 13.0121C20.3151 14.0229 27.6849 14.0229 34.9477 13.0121C35.0767 12.9908 35.2088 12.9977 35.3349 13.0321C35.461 13.0666 35.5781 13.1279 35.6781 13.2117C35.7781 13.2956 35.8587 13.4 35.9142 13.5178C35.9698 13.6357 35.9991 13.7641 36 13.8943V29.2584C36.001 29.3906 35.9734 29.5215 35.919 29.6421C35.8647 29.7628 35.7849 29.8704 35.685 29.9575C35.5852 30.0447 35.4676 30.1095 35.3404 30.1474C35.2132 30.1853 35.0792 30.1955 34.9477 30.1773Z" stroke="#8B57C2" stroke-width="2" stroke-linecap="round" stroke-linejoin="round"/>
</svg>
